<svg width="100" height="22" viewBox="0 0 100 22" fill="none" xmlns="http://www.w3.org/2000/svg">
<path d="M13.3465 13.4572C13.0328 14.9105 12.4244 16.0199 11.5438 16.7551C10.6632 17.4884 9.56914 17.8607 8.29552 17.8607C7.24677 17.8607 6.2566 17.5866 5.35524 17.0461C4.45955 16.5094 3.78873 15.6835 3.36356 14.593C2.93272 13.4893 2.71352 12.1777 2.71352 10.6923C2.71352 9.54321 2.89871 8.41115 3.26341 7.33013C3.62244 6.26233 4.25547 5.40054 5.14171 4.76931C6.02795 4.13619 7.1504 3.81491 8.47692 3.81491C9.62582 3.81491 10.5895 4.10218 11.3435 4.66915C12.0975 5.23801 12.6852 6.16217 13.0839 7.41896L13.1254 7.54747L15.718 6.93703L15.6746 6.78962C15.1908 5.1265 14.3216 3.81869 13.0914 2.9002C11.8613 1.9817 10.325 1.5149 8.52417 1.5149C6.94065 1.5149 5.46862 1.88154 4.14965 2.60537C2.8269 3.3311 1.79138 4.40645 1.07521 5.80309C0.360921 7.18839 0 8.83827 0 10.7017C0 12.4102 0.319349 14.0298 0.950489 15.5172C1.58352 17.014 2.52267 18.1763 3.74149 18.9663C4.95841 19.7581 6.55516 20.1588 8.48826 20.1588C10.4214 20.1588 11.9709 19.6372 13.2709 18.6072C14.5691 17.5791 15.4818 16.0672 15.9788 14.1149L16.0147 13.9731L13.3787 13.3079L13.3465 13.4572Z" fill="white"/>
<path d="M28.928 12.408C28.671 12.1756 28.3196 11.9412 27.8812 11.705C29.3872 11.4347 30.5361 10.8904 31.2976 10.0835C32.1347 9.1952 32.5599 8.0915 32.5599 6.79881C32.5599 5.79905 32.3048 4.87489 31.8003 4.04711C31.2938 3.21555 30.6041 2.62779 29.7557 2.29706C28.9186 1.97388 27.6865 1.80946 26.0955 1.80946H18.0796V18.537C18.0796 19.2646 18.6692 19.8543 19.3967 19.8543H20.7194V11.9715H23.2988C23.8902 11.9715 24.3192 11.9998 24.5724 12.0527C24.9182 12.1378 25.264 12.2909 25.6004 12.5063C25.9348 12.7218 26.3241 13.1111 26.7568 13.661C27.1971 14.2205 27.764 15.0407 28.4443 16.0952L30.8366 19.8561H34.1359L30.9046 14.7988C30.2867 13.8481 29.6215 13.0449 28.928 12.408ZM29.4004 8.31451C29.1038 8.77375 28.6635 9.11205 28.0928 9.32183C27.507 9.53728 26.6756 9.64689 25.6249 9.64689H20.7213V4.06412H26.1937C27.4654 4.06412 28.4065 4.32492 28.9847 4.83898C29.5667 5.35492 29.8502 5.99749 29.8502 6.8007C29.8502 7.3431 29.699 7.85148 29.4004 8.31451Z" fill="white"/>
<path d="M36.057 19.8524H38.6968V3.15318C38.6968 2.41234 38.0959 1.80946 37.3552 1.80946H36.0589L36.057 19.8524Z" fill="white"/>
<path d="M71.7873 1.80946H57.4279V3.06814C57.4279 3.68992 57.9324 4.19452 58.5541 4.19452H63.2745V19.8524H65.9143V4.19641H70.6592C71.2808 4.19641 71.7873 3.69181 71.7873 3.07003V1.80946Z" fill="white"/>
<path d="M76.1409 1.80946L69.2135 19.8524H72.0215L73.9716 14.4756H81.1919L83.2629 19.8524H86.2561L78.8733 1.80946H76.1409ZM80.3529 12.272H74.7558L76.6322 7.25994C76.9761 6.32066 77.2595 5.36437 77.475 4.40808C77.7433 5.27743 78.1118 6.332 78.5747 7.55099L80.3529 12.272Z" fill="white"/>
<path d="M90.6392 17.4714V2.87382C90.6392 2.28984 90.1649 1.81547 89.581 1.81547H87.9994V19.8584H98.3225C98.9064 19.8584 99.3807 19.384 99.3807 18.8V17.4733L90.6392 17.4714Z" fill="white"/>
<path d="M52.4275 19.2059C52.5257 19.2059 52.6278 19.2021 52.7336 19.1945C54.404 19.0622 55.3772 18.6313 55.7419 16.732C55.8118 16.3238 55.8402 15.9042 55.8231 15.4941C55.7022 12.6479 53.9751 11.2513 50.8307 9.66943L50.7003 9.60517C48.7748 8.664 46.7831 7.69259 46.6962 5.64204C46.6622 4.83694 46.9229 4.11311 47.4539 3.55181C48.1833 2.77884 49.2604 2.66922 50.8175 2.64277H50.9346C51.305 2.64277 51.7113 2.67111 52.1383 2.72781C52.8111 2.81853 53.429 2.37629 53.5858 1.72049L53.8882 0.159434C52.3386 -0.0749145 50.8458 0.013911 50.5473 0.0290302C48.6916 0.121635 46.4373 0.955083 45.0427 2.43299C44.0601 3.47621 43.5518 4.98814 43.6123 6.42446C43.7332 9.25743 45.4982 10.6616 48.5046 12.1282C50.7646 13.2886 52.5276 14.1957 52.6126 16.1877C52.6618 17.3519 52.1629 18.3195 51.1935 18.9696C51.5167 19.1038 51.9248 19.2059 52.4275 19.2059Z" fill="white"/>
<path d="M51.1334 19.7354C49.121 19.0947 48.4634 17.9286 47.7037 16.4318C46.638 14.334 44.7408 14.0109 43.4936 15.1051C42.3296 16.1276 42.1142 18.3199 44.0567 19.9811C46.2941 21.8955 48.5597 22.162 51.3073 21.459C53.6618 20.8561 54.8334 19.1911 54.8334 19.1911C54.8334 19.1911 53.1742 20.3855 51.1334 19.7354ZM45.3908 16.0387C44.4195 15.863 43.5957 16.3487 43.5957 16.3487C43.5957 16.3487 44.087 15.228 45.2189 15.2941C46.8534 15.3905 47.0953 17.0234 47.0953 17.0234C47.0953 17.0234 46.5662 16.2523 45.3908 16.0387Z" fill="white"/>
</svg>
