<svg width="37" height="37" viewBox="0 0 37 37" fill="none" xmlns="http://www.w3.org/2000/svg">
<path d="M36.6011 18.2959C36.6011 8.18917 28.4027 0 18.2959 0C8.18917 0 0 8.18917 0 18.2959C0 28.4027 8.18917 36.5919 18.2959 36.5919C28.4027 36.5919 36.5919 28.4027 36.5919 18.2959" fill="white"/>
<path d="M10.0238 17.1985C9.88481 16.6704 9.67175 16.198 9.36604 15.7904C9.06034 15.3735 8.67126 15.04 8.19881 14.7992C7.71709 14.549 7.16127 14.4286 6.54059 14.4286C5.9755 14.4286 5.45673 14.5305 4.99354 14.7343C4.53036 14.9381 4.12275 15.216 3.78926 15.5681C3.45576 15.9201 3.19637 16.3369 3.0111 16.8187C2.82582 17.3004 2.74245 17.8192 2.74245 18.3657C2.74245 18.9123 2.82582 19.4588 3.0111 19.9406C3.18711 20.4223 3.43723 20.8299 3.77073 21.1819C4.10422 21.5339 4.50257 21.8026 4.97502 21.9878C5.44747 22.1731 5.9755 22.2658 6.54986 22.2658C7.3836 22.2658 8.10617 22.0805 8.70831 21.6914C9.01402 21.4969 9.2734 21.2375 9.49573 20.9132C9.71807 20.5983 9.90334 20.2092 10.0423 19.7738L10.0886 19.6256C10.0886 19.6256 10.1164 19.5607 10.033 19.5607H8.11543C8.01353 19.5607 8.00427 19.6163 8.00427 19.6163L7.98574 19.6812C7.95795 19.7645 7.91163 19.8479 7.83752 19.9406C7.76341 20.0332 7.66151 20.1258 7.52255 20.2092C7.27243 20.3852 6.96673 20.4686 6.59618 20.4686C6.33679 20.4686 6.1052 20.4408 5.91992 20.3667C5.72538 20.3018 5.57716 20.2092 5.44747 20.0888C5.31778 19.9683 5.22514 19.8109 5.15103 19.5978C5.09545 19.431 5.04913 19.2365 5.0306 19.0049H10.0701C10.1535 19.0049 10.1535 18.9123 10.1535 18.9123V18.8474C10.1627 18.727 10.172 18.5973 10.172 18.4769C10.172 18.0415 10.1257 17.6246 10.0145 17.217M5.32704 16.7446C5.43821 16.6056 5.57716 16.4944 5.7717 16.4018C5.94771 16.3092 6.17931 16.2628 6.47575 16.2628C6.69808 16.2628 6.89262 16.2906 7.04084 16.3555C7.19832 16.4111 7.31875 16.4944 7.41139 16.5963C7.5874 16.7909 7.72636 17.0688 7.81899 17.4393H5.03986C5.05839 17.3652 5.07692 17.2819 5.09545 17.1892C5.14177 17.041 5.21588 16.8928 5.32704 16.7538" fill="black"/>
<path d="M17.3242 22.0205L14.6192 18.1204L17.0648 14.6372C17.0648 14.6372 17.0926 14.5909 17.0093 14.5909H14.5358C14.4617 14.5909 14.4339 14.6372 14.4339 14.6372L13.3223 16.3047L12.2014 14.6465C12.2014 14.6465 12.1643 14.5909 12.0809 14.5909H9.54267C9.46856 14.5909 9.50561 14.6372 9.50561 14.6372L9.67236 14.8874L11.942 18.1575L9.30181 22.0205C9.30181 22.0205 9.25549 22.0946 9.33886 22.0946H11.8216C11.9235 22.0946 11.9605 22.0112 11.9605 22.0112L13.2945 20.001L14.6192 22.0112C14.6192 22.0112 14.6748 22.0946 14.7582 22.0946H17.2779C17.3706 22.0946 17.315 22.0112 17.315 22.0112" fill="black"/>
<path d="M20.4461 14.5999H17.5929C17.491 14.5999 17.5095 14.6648 17.5095 14.6648L17.9171 22.011C17.9171 22.011 17.9171 22.1036 18.0005 22.1036H20.02C20.1034 22.1036 20.1034 22.011 20.1034 22.011L20.511 14.6833C20.511 14.6833 20.511 14.5999 20.4369 14.5999" fill="black"/>
<path d="M25.8827 16.2828C25.8827 16.2828 25.9568 16.2828 25.9568 16.1901V14.6709C25.9568 14.6709 25.9568 14.5968 25.8734 14.5968H24.5209V12.5402C24.5209 12.5402 24.5209 12.4568 24.4376 12.4568H22.2606C22.1772 12.4568 22.1772 12.5402 22.1772 12.5402V14.5968H21.0841C20.9822 14.5968 21.0007 14.6616 21.0007 14.6616V16.1901C21.0007 16.1901 20.9914 16.2735 21.0748 16.2735H22.1865V20.2847C22.1865 20.6645 22.2513 20.9795 22.3903 21.2389C22.5292 21.489 22.7145 21.6835 22.9554 21.8225C23.187 21.9522 23.4463 22.0448 23.7335 22.0912C24.0114 22.1375 24.3171 22.156 24.6228 22.156C24.8174 22.156 25.0212 22.156 25.225 22.1375C25.4288 22.1375 25.6233 22.1097 25.7993 22.0819L25.8827 22.0634C25.8827 22.0634 25.9568 22.0634 25.9568 21.9707V20.2199C25.9568 20.1272 25.8827 20.155 25.8827 20.155L25.7345 20.1828C25.6511 20.2013 25.5585 20.2106 25.4658 20.2199C25.3732 20.2199 25.2713 20.2291 25.1694 20.2291C25.0119 20.2291 24.8915 20.2106 24.7988 20.1921C24.7062 20.1736 24.6599 20.1365 24.6414 20.118C24.6136 20.0994 24.5858 20.0439 24.5673 19.9605C24.5395 19.8679 24.5302 19.7474 24.5302 19.5899V16.255H25.8827V16.2828Z" fill="black"/>
<path d="M33.5717 16.745C33.3865 16.2541 33.1271 15.8372 32.7843 15.4944C32.4416 15.1517 32.034 14.883 31.5522 14.6885C31.0705 14.5032 30.5425 14.4106 29.9589 14.4106C29.3753 14.4106 28.8472 14.5032 28.3748 14.6885C27.9023 14.8738 27.4947 15.1424 27.152 15.4944C26.8092 15.8372 26.5498 16.2541 26.3645 16.745C26.1793 17.236 26.0866 17.7733 26.0866 18.3662C26.0866 18.9591 26.1793 19.4964 26.3645 19.9781C26.5498 20.4598 26.8092 20.8767 27.152 21.2194C27.4947 21.5622 27.9023 21.8309 28.3748 22.0161C28.8472 22.2014 29.3753 22.294 29.9589 22.294C30.5425 22.294 31.0705 22.2014 31.5522 22.0161C32.034 21.8309 32.4416 21.5715 32.7843 21.2194C33.1271 20.8767 33.3865 20.4598 33.5717 19.9781C33.757 19.4964 33.8497 18.9591 33.8497 18.3662C33.8497 17.7733 33.757 17.236 33.5717 16.745ZM30.7 20.2745C30.5054 20.3857 30.2646 20.4413 29.9589 20.4413C29.6532 20.4413 29.4123 20.3857 29.227 20.2745C29.0325 20.1634 28.8843 20.0152 28.7639 19.8206C28.6434 19.6261 28.56 19.4037 28.5045 19.1536C28.4489 18.8942 28.4211 18.6349 28.4211 18.3569C28.4211 18.079 28.4489 17.8196 28.5045 17.551C28.56 17.2916 28.6434 17.0785 28.7639 16.884C28.8843 16.6987 29.0325 16.5505 29.2363 16.4301C29.4216 16.3189 29.6624 16.2541 29.9681 16.2541C30.2738 16.2541 30.5147 16.3189 30.7092 16.4301C30.913 16.5505 31.0705 16.6987 31.1817 16.884C31.3021 17.0785 31.3855 17.2916 31.4411 17.551C31.4967 17.8104 31.5245 18.079 31.5245 18.3569C31.5245 18.6349 31.4967 18.8942 31.4411 19.1536C31.3948 19.4037 31.3021 19.6261 31.1817 19.8206C31.0613 20.0059 30.913 20.1541 30.7092 20.2745" fill="black"/>
<path d="M20.4171 23.8889C20.4171 23.12 19.7871 22.49 19.0182 22.49C18.2494 22.49 17.6194 23.12 17.6194 23.8889C17.6194 24.6578 18.2494 25.2877 19.0182 25.2877C19.7871 25.2877 20.4171 24.6578 20.4171 23.8889Z" fill="black"/>
<path d="M6.81726 12.5214L5.72414 13.8925C5.72414 13.8925 5.65929 13.9759 5.74266 13.9759H7.03959C7.15076 13.9759 7.20634 13.9203 7.20634 13.9203L9.04983 12.5214C9.04983 12.5214 9.11467 12.4659 9.0313 12.4659H6.96548C6.87284 12.4659 6.83579 12.5214 6.83579 12.5214" fill="black"/>
<path d="M35.6647 15.3365C35.6647 15.5032 35.6276 15.6514 35.5442 15.7996C35.4609 15.9386 35.3497 16.0498 35.2108 16.1331C35.0718 16.2165 34.9143 16.2536 34.7568 16.2536C34.5993 16.2536 34.4419 16.2165 34.3029 16.1331C34.1639 16.0498 34.0528 15.9386 33.9694 15.7996C33.886 15.6607 33.849 15.5032 33.849 15.3365C33.849 15.1697 33.8953 15.0215 33.9694 14.8825C34.0528 14.7436 34.1639 14.6324 34.3029 14.549C34.4419 14.4657 34.5993 14.4286 34.7568 14.4286C34.9143 14.4286 35.0718 14.4657 35.2108 14.549C35.359 14.6324 35.4701 14.7436 35.5442 14.8825C35.6276 15.0215 35.6647 15.179 35.6647 15.3365ZM35.4887 15.3365C35.4887 15.1327 35.4146 14.9566 35.2756 14.8084C35.1366 14.6602 34.9606 14.5954 34.7476 14.5954C34.5345 14.5954 34.3677 14.6695 34.2195 14.8084C34.0713 14.9566 34.0065 15.1327 34.0065 15.3365C34.0065 15.5403 34.0806 15.7163 34.2195 15.8645C34.3677 16.0035 34.5345 16.0776 34.7476 16.0776C34.9606 16.0776 35.1274 16.0035 35.2756 15.8645C35.4238 15.7163 35.4887 15.5403 35.4887 15.3365ZM34.7661 14.8455C34.8865 14.8455 34.9792 14.8733 35.0347 14.9196C35.0903 14.9659 35.1181 15.0308 35.1181 15.1234C35.1181 15.1882 35.0996 15.2438 35.0533 15.2901C35.007 15.3365 34.9421 15.3735 34.8495 15.392C34.8865 15.4106 34.9143 15.4198 34.9328 15.4384C34.9606 15.4662 34.9792 15.4939 35.007 15.5403C35.007 15.5403 35.0625 15.6422 35.1644 15.8274H34.8773C34.7846 15.6422 34.7198 15.531 34.6827 15.4939C34.6549 15.4569 34.6179 15.4384 34.5901 15.4384C34.5901 15.4384 34.5716 15.4384 34.5623 15.4384V15.8274H34.3214V14.8455H34.7661ZM34.5716 15.2624H34.6735C34.7476 15.2624 34.7939 15.2531 34.8217 15.2253C34.8495 15.2068 34.8587 15.179 34.8587 15.1327C34.8587 15.0956 34.8495 15.0678 34.8217 15.0493C34.7939 15.0215 34.7476 15.0122 34.6827 15.0122H34.5716V15.2624Z" fill="black"/>
</svg>
