<svg width="126" height="17" viewBox="0 0 126 17" fill="none" xmlns="http://www.w3.org/2000/svg">
<path d="M96.5717 15.2955C96.3338 14.747 91.4683 2.34541 91.4683 2.34541L88.6624 2.31323C88.6624 2.31323 84.2839 14.5271 83.8708 15.2955C83.7343 15.5382 83.564 15.7555 83.2572 15.9553V16.2744L86.8269 16.2798V15.9432C86.4688 15.616 86.162 15.1359 86.3711 14.621C86.4287 14.4855 86.8995 12.9756 87.4141 11.7418L92.1269 11.7378C92.1269 11.7378 93.2687 14.6491 93.3213 14.8463C93.4703 15.3733 93.3076 15.6911 93.0171 15.9432V16.2798H97.2265V15.958C96.8985 15.7582 96.7082 15.5369 96.5692 15.2942L96.5717 15.2955ZM87.8661 10.1192L89.7304 4.79141L91.591 10.1192H87.8661Z" fill="#FEFEFE"/>
<path d="M52.6654 14.8329V3.95733C52.6579 3.50005 52.9597 3.13529 53.2789 2.88989V2.55732L49.2961 2.56403V2.90062C49.6091 3.13395 49.8933 3.50273 49.9071 4.06461V8.27537H44.2716V3.95733C44.2716 3.63951 44.4556 3.20369 44.8338 2.89525V2.56537H41.0049V2.89525C41.328 3.16882 41.611 3.59526 41.611 4.12227V14.8342C41.611 15.1373 41.4357 15.6268 41.0575 15.9607V16.2825H44.9151V15.9486C44.522 15.6187 44.2728 15.1386 44.2728 14.8342V9.89665H49.9084V14.8342C49.9084 15.1547 49.7118 15.5959 49.2723 15.9406V16.2812H53.4329V15.9996C53.0698 15.7555 52.6667 15.3881 52.6667 14.8342L52.6654 14.8329Z" fill="#FEFEFE"/>
<path d="M82.5347 2.56532H79.1316V2.90996C79.4859 3.15 79.7802 3.55365 79.7802 4.36227L79.7526 12.7422L74.1071 2.56532H70.2006V2.89521C70.3183 2.98372 70.4272 3.07357 70.5136 3.17548C70.9619 3.74005 70.8968 3.99618 70.8968 4.94561V14.5338C70.8968 15.1761 70.6388 15.6482 70.2582 15.9445V16.2811H73.7953V15.9553C73.3408 15.6616 72.8299 15.1949 72.8299 14.4533L72.8562 6.16056C72.8562 6.296 78.5018 16.2516 78.5018 16.2516H81.7221V4.37971C81.7221 3.59522 82.1378 3.16207 82.5372 2.90192V2.56667L82.5347 2.56532Z" fill="#FEFEFE"/>
<path d="M113.966 0C113.344 0 112.783 0.53372 112.772 1.17204C112.754 1.79561 113.11 2.16573 113.702 2.31324C113.988 2.38297 114.243 2.38297 114.358 2.31324C114.447 2.25691 114.469 2.49695 114.469 2.66726C114.49 3.62608 113.687 4.06459 113.472 4.09275C113.228 4.1303 113.314 4.28049 113.426 4.24831C114.391 4.2121 115.423 3.15137 115.423 1.7594C115.423 0.651729 114.733 0 113.966 0Z" fill="#FEFEFE"/>
<path d="M108.119 2.56538V2.90063C108.513 3.18627 108.804 3.67171 108.804 4.55678L108.778 12.7409L103.134 2.56404H99.2247V2.906C99.3224 2.97439 99.4063 3.0468 99.4839 3.13263C99.9347 3.69183 99.9197 3.99355 99.9197 4.94299V14.5312C99.9197 15.1695 99.5916 15.6415 99.2072 15.9419V16.2785H102.614V15.9379C102.165 15.6482 101.852 15.2003 101.852 14.4521L101.883 6.15928C101.883 6.29472 107.523 16.2504 107.523 16.2504H110.749V4.55812C110.749 3.61539 111.109 3.15408 111.48 2.90197V2.56672H108.119V2.56538Z" fill="#FEFEFE"/>
<path d="M7.67515 8.85201C7.67515 8.85201 10.9969 8.40546 10.9969 5.82402C10.9969 3.24258 8.06705 2.58147 6.73235 2.58147H0.0751246V2.87917C0.405669 3.15005 0.658585 3.56711 0.658585 3.98282V14.8651C0.658585 15.3023 0.36435 15.7126 0 15.9821L0 16.2785H6.67099C10.4748 16.2785 11.9409 14.0632 11.9409 12.458C11.9409 9.23018 7.6764 8.85067 7.6764 8.85067L7.67515 8.85201ZM3.45319 3.91443C3.45319 3.91443 4.74657 3.87554 5.14848 3.87554C7.40971 3.87554 7.95185 4.96041 7.95185 6.10965C7.95185 8.43496 5.34756 8.32902 4.20192 8.32902H3.45319V3.91443ZM5.72694 14.5526C5.44022 14.5526 3.45319 14.5097 3.45319 14.5097V9.65125C3.45319 9.65125 4.88805 9.6432 5.14848 9.6432C7.12925 9.6432 8.77446 10.1434 8.77446 12.0396C8.77446 13.4557 7.97815 14.5526 5.72694 14.5526Z" fill="#FEFEFE"/>
<path d="M121.493 7.78458C119.441 7.07518 118.439 6.70909 118.439 5.4767C118.439 4.61041 119.188 3.62343 120.664 3.62343C122.312 3.62343 123.557 4.56482 124.256 5.529H124.742L124.694 2.4581L124.325 2.47553C123.867 3.08703 122.037 2.08798 120.608 2.08798C118.654 2.08798 115.763 3.33244 115.763 6.35909C115.763 7.82749 116.548 8.83995 118.135 9.63651C120.053 10.5993 123.35 10.6584 123.382 12.9407C123.395 13.9291 122.478 15.1561 120.482 15.1561C118.691 15.1561 117.053 14.1342 116.232 13.0078H115.736L115.756 16.3844L116.118 16.3791C116.442 15.5128 118.157 16.6701 120.357 16.6701C123.5 16.6701 125.854 14.6666 125.854 12.1469C125.854 9.22079 123.137 8.35048 121.491 7.78324L121.493 7.78458Z" fill="#FEFEFE"/>
<path d="M22.3644 2.56532V2.89521C22.7751 3.23851 23.0493 3.75882 23.0493 4.06725L23.0831 11.8558C23.1044 13.9759 22.4846 15.1761 20.1833 15.1761C17.4776 15.1761 16.9906 13.2974 16.9906 11.8236L17.0344 4.04043C17.0407 3.47989 17.39 3.12184 17.7431 2.89253V2.58276H17.0407V2.56801H13.5361V2.90326C13.9506 3.21974 14.1634 3.67165 14.1634 3.98813V11.9497C14.1634 16.0894 17.3036 16.7371 19.7213 16.7371C23.3335 16.7371 25.1152 15.4068 25.139 11.8209L25.1515 4.09675C25.1515 3.68506 25.4808 3.20767 25.9529 2.89789V2.56801H22.3632L22.3644 2.56532Z" fill="#FEFEFE"/>
<path d="M38.1767 12.5666C37.0523 14.5982 35.1053 15.1547 34.3165 15.1547C31.0837 15.1547 30.6392 11.8237 30.6392 9.22345C30.6392 5.95676 31.85 3.71192 34.165 3.74142C35.0002 3.75215 36.7255 4.0941 37.8849 5.87228H38.407C38.4246 4.61442 38.4346 2.51306 38.4346 2.51306C38.4258 2.52781 38.0565 2.51306 38.0565 2.51306C37.6107 2.82417 36.9985 2.73164 36.0782 2.47953C35.4647 2.31459 35.0014 2.14965 34.1938 2.14965C30.4026 2.14965 27.3926 5.85351 27.3926 9.46484C27.3926 13.7856 30.4427 16.6231 34.011 16.5909C35.7602 16.5775 37.1575 16.2235 38.6812 15.0796C38.6812 15.0796 38.69 13.6501 38.6912 12.5679H38.1754L38.1767 12.5666Z" fill="#FEFEFE"/>
<path d="M68.0044 15.144C67.7528 14.6022 62.9235 2.34541 62.9235 2.34541L60.1177 2.31323C60.1177 2.31323 55.7405 14.5271 55.331 15.2955C55.1783 15.5597 54.9066 15.8024 54.4922 16.0183V16.2798H58.356V16.0183C57.9654 15.6924 57.5985 15.1775 57.8289 14.6223C57.8865 14.4869 58.356 12.9769 58.8656 11.7432H63.6059C64.1205 12.9783 64.7303 14.6505 64.7854 14.8463C64.9406 15.4149 64.7328 15.7461 64.396 16.0089V16.2798H68.7482V15.9553C68.4426 15.7769 68.206 15.5691 68.0044 15.1426V15.144ZM59.3214 10.1206L61.1832 4.79275L63.0425 10.1206H59.3214Z" fill="#FEFEFE"/>
</svg>
