<svg width="80" height="35" viewBox="0 0 80 35" fill="none" xmlns="http://www.w3.org/2000/svg">
<path d="M28.4028 13.9908C27.7311 14.0521 27.6827 13.8207 27.1986 13.2947C27.026 13.0978 22.1106 7.08617 21.9522 6.90999C21.8589 6.80549 21.8113 6.77354 21.6291 6.82967C21.4443 6.88667 21.0252 7.01362 20.8087 7.10085C20.6995 7.14576 20.667 7.19844 20.667 7.35302C20.6705 7.59225 20.4073 13.7326 20.3096 15.0945C20.2647 15.7111 20.1943 16.1731 19.7665 16.5462C19.6864 16.6153 19.6802 16.6291 19.6652 16.7267C19.6476 16.826 19.6573 16.7673 19.6397 16.8649C19.6327 16.9305 19.6599 16.9608 19.7277 16.9279C20.2576 16.6844 21.8404 16.13 22.2708 15.9978C22.3412 15.9745 22.3501 15.9521 22.3773 15.8666C22.3958 15.8061 22.3817 15.8614 22.4214 15.7318C22.4407 15.6628 22.409 15.6412 22.3333 15.6584C21.4504 15.8614 21.3237 15.2284 21.3254 14.5288C21.3263 14.1704 21.3298 13.4243 21.3439 12.824C21.9953 12.6073 23.0463 12.2497 23.8095 12.0097C24.3298 12.6876 24.7822 13.3059 24.8615 13.407C25.078 13.6851 25.2752 14.0607 25.2426 14.3397C25.2189 14.5755 24.9064 14.7655 24.7453 14.857C24.6608 14.9019 24.6757 14.971 24.6449 15.1014C24.6379 15.1368 24.6352 15.1472 24.6344 15.1498C24.6344 15.148 24.6361 15.1489 24.6335 15.1748C24.6282 15.2404 24.6625 15.2474 24.7321 15.224C25.3975 15.0297 27.2329 14.5495 28.2848 14.3423C28.3922 14.3216 28.4028 14.3138 28.4204 14.2594C28.4688 14.1419 28.4609 14.1618 28.4908 14.0849C28.5137 14.0331 28.5137 13.9761 28.4019 13.9908H28.4028ZM21.7418 15.889C21.6009 15.9374 21.4363 15.9391 21.3122 15.8977C21.0684 15.7733 20.902 15.5669 20.9073 15.0954C20.9099 14.8259 20.9205 13.4942 20.9346 12.9959C21.0164 12.9648 21.1009 12.9389 21.1846 12.9121C21.1687 13.369 21.1511 14.7205 21.1494 15.0038C21.1406 15.4658 21.4082 15.7603 21.7418 15.8882V15.889ZM21.1863 11.9777C21.1001 12.0062 21.012 12.0347 20.9267 12.0649C20.9892 10.8861 21.0543 9.70638 21.1186 8.52668C21.1943 8.63291 21.2682 8.73913 21.3421 8.84449C21.2911 9.88947 21.2383 10.9327 21.1863 11.9777ZM21.3677 11.9259C21.4117 10.45 21.4601 8.95158 21.4601 8.95158C21.4601 8.95158 22.3791 10.1425 23.2585 11.2851C22.7057 11.4647 21.8703 11.7488 21.3677 11.925V11.9259ZM27.3878 14.0815C27.3368 14.0772 27.2884 14.0677 27.2382 14.0547C27.0648 13.9485 26.9046 13.7956 26.7241 13.6013C26.6194 13.4873 24.7065 11.1331 23.3157 9.44643C22.4037 8.34014 21.6379 7.37893 21.5745 7.30898C21.5252 7.2563 21.4812 7.21225 21.417 7.19585C21.4698 7.18116 21.5147 7.16735 21.5543 7.15698C21.74 7.1043 21.7884 7.13712 21.8729 7.24162C22.034 7.41607 26.9081 13.4225 27.0736 13.6143C27.2989 13.8612 27.4873 14.0314 27.6995 14.1333C27.622 14.1376 27.4539 14.0875 27.3887 14.0823L27.3878 14.0815Z" fill="white"/>
<path d="M33.6571 13.122C32.7337 13.1591 32.7733 12.5278 32.7214 12.0943C32.6853 11.8205 31.9036 6.33914 31.8737 6.07919C31.8218 5.6517 31.8429 5.28207 32.2548 5.10071C32.3578 5.05753 32.4467 5.05666 32.4872 4.9703C32.5172 4.91158 32.5154 4.87099 32.5427 4.79067C32.5717 4.71035 32.5489 4.68617 32.4511 4.6974C31.7417 4.75872 30.0234 4.99535 29.1695 5.15771C29.1035 5.1698 29.0648 5.18275 29.0155 5.26998C28.9582 5.36411 28.9899 5.3313 28.9424 5.41766C28.9177 5.46775 28.9248 5.5282 29.0251 5.52129C29.8975 5.46429 29.9107 6.11028 29.9714 6.52395C30.0163 6.7934 30.9221 12.299 30.952 12.5572C31.0225 13.0978 30.901 13.35 30.4142 13.5823C30.3183 13.6298 30.3086 13.6445 30.2857 13.7248C30.276 13.7585 30.2602 13.7956 30.2452 13.8388C30.2276 13.8949 30.2452 13.9347 30.3455 13.9131C30.9256 13.7783 32.8402 13.5106 33.4943 13.4571C33.5629 13.4536 33.6043 13.4355 33.658 13.3465C33.7152 13.2593 33.6853 13.3137 33.7328 13.2274C33.7619 13.1764 33.7557 13.1185 33.6562 13.1229L33.6571 13.122ZM32.3614 13.0028C32.2795 12.9406 32.2126 12.704 32.1835 12.5175C32.1378 12.2066 31.3508 6.73036 31.3121 6.49545C31.2698 6.23118 31.2249 5.79851 31.401 5.56102C31.4556 5.46256 31.6325 5.29934 31.7091 5.24407C31.7091 5.24407 31.4837 5.50747 31.6052 6.454C31.6792 7.04989 32.3948 12.2204 32.4353 12.4803C32.4652 12.698 32.5541 12.9795 32.7135 13.109C32.5894 13.1108 32.445 13.0676 32.3622 13.0019L32.3614 13.0028Z" fill="white"/>
<path d="M43.0443 10.7479C42.9836 10.766 42.9528 10.7747 42.922 10.7963C42.8454 10.8498 42.804 10.9414 42.7723 11.0631C42.6473 11.5088 42.1051 12.1081 41.4211 12.2489C40.9546 12.3482 40.415 12.3335 40.076 12.3093C39.1632 12.2454 39.1122 11.8792 39.1016 11.444C39.0945 11.1728 39.0452 5.99542 39.0364 5.74151C39.0188 5.25702 39.1808 4.8209 39.6579 4.68445C39.7697 4.65336 39.8604 4.65767 39.9035 4.57822C39.9387 4.52122 39.9326 4.51777 39.9616 4.43918C40.0056 4.36491 39.9801 4.34073 39.8815 4.34245C39.1359 4.36232 37.3331 4.34332 36.4845 4.42104C36.4194 4.42881 36.3789 4.43745 36.3191 4.52036C36.2566 4.60758 36.2759 4.57822 36.2231 4.65681C36.1941 4.70604 36.1958 4.76476 36.2891 4.76649C37.1474 4.78635 37.1263 5.44875 37.1492 5.8581C37.1632 6.12841 37.349 11.6815 37.3587 11.9354C37.3736 12.3827 37.2337 12.7144 36.7345 12.8733C36.6289 12.9078 36.6298 12.9234 36.5814 13.0037C36.547 13.0641 36.5611 13.0512 36.5277 13.1263C36.4898 13.2066 36.5145 13.2369 36.6122 13.2282C38.4035 13.0874 40.804 13.1116 42.7248 13.198C42.9193 13.2092 42.9809 13.1073 42.9994 12.8923C43.0117 12.7178 43.1332 11.0908 43.1596 10.8187C43.1676 10.7194 43.1561 10.7142 43.0452 10.7479H43.0443ZM38.7953 11.5476C38.7988 11.7678 38.8516 12.0615 38.9907 12.2091C38.8692 12.1953 38.7257 12.1349 38.6544 12.0615C38.5858 11.9898 38.547 11.7462 38.5409 11.5511C38.5347 11.2393 38.4572 6.27177 38.4484 6.03169C38.4387 5.76656 38.4484 5.33561 38.6527 5.11798C38.7213 5.02557 38.9176 4.88394 39.0004 4.8399C39.0004 4.8399 38.7398 5.07566 38.7407 6.02651C38.7407 6.63104 38.7891 11.2816 38.7953 11.5476ZM42.7802 12.6703C42.7538 12.8741 42.7028 13.0028 42.5153 12.9804C42.4774 12.9752 42.348 12.9786 42.3119 12.9752C42.4123 12.9372 42.495 12.8724 42.5109 12.7066C42.5144 12.6815 42.5813 11.9164 42.5813 11.9164C42.6728 11.7868 42.7679 11.6582 42.8612 11.5312C42.8621 11.5312 42.7908 12.584 42.7811 12.6703H42.7802Z" fill="white"/>
<path d="M52.6489 5.74065C52.6393 5.56706 52.5407 5.51179 52.4236 5.47984C50.9984 5.16548 47.9501 4.75613 46.4765 4.6499C46.4087 4.64386 46.37 4.6499 46.2987 4.72331C46.2256 4.79758 46.2643 4.73799 46.1974 4.80794C46.1605 4.85026 46.1561 4.90985 46.2511 4.92194C46.9703 5.0368 46.7652 5.68883 46.7353 6.13705C46.7159 6.40823 46.0997 11.9345 46.0636 12.223C46.0038 12.6712 45.7899 12.9812 45.2767 13.0831C45.171 13.1056 45.1614 13.1159 45.1068 13.1919C45.0663 13.2446 45.1165 13.1945 45.0751 13.2679C45.0293 13.3405 45.0487 13.3742 45.1438 13.3802C47.1913 13.5028 49.6816 13.9252 51.5486 14.2982C51.7326 14.3354 51.8321 14.2542 51.8831 14.0461C51.9201 13.8768 52.3294 11.9846 52.3611 11.8473C52.3954 11.7057 52.3602 11.7074 52.2643 11.7437C52.2255 11.7575 52.1578 11.7747 52.0909 11.8015C52.009 11.8387 51.9949 11.8853 51.9439 12.0019C51.7458 12.4492 51.3549 13.0667 50.5979 13.1134C50.1164 13.147 49.0706 12.9734 48.7705 12.9061C47.8796 12.7014 47.8805 12.3706 47.9157 11.9328C47.9245 11.7903 48.0407 10.5855 48.1869 9.27975C48.5856 9.32725 49.2009 9.38771 49.4527 9.42743C50.3822 9.57684 50.8118 9.46025 50.8215 10.5147C50.8241 10.6089 50.855 10.6201 50.9245 10.583C51.0196 10.5303 51.0002 10.5432 51.0741 10.4983C51.1454 10.45 51.1507 10.412 51.1648 10.3083C51.1895 10.1252 51.3505 8.94294 51.4007 8.60354C51.4218 8.45759 51.34 8.45586 51.2308 8.51718C50.8981 8.71063 50.8162 8.79181 49.8559 8.6709C49.4509 8.62254 48.693 8.52841 48.2863 8.46191C48.4386 7.14489 48.5795 5.92892 48.5953 5.79247C49.0592 5.85983 49.6798 5.91942 50.4412 6.05673C51.1463 6.18023 52.2 6.2165 52.3734 7.10948C52.3893 7.20275 52.4289 7.19066 52.4667 7.16044C52.5055 7.13021 52.5785 7.10257 52.6137 7.06544C52.6393 7.04039 52.6489 7.04212 52.6437 6.92812C52.6419 6.82967 52.6542 6.00751 52.6454 5.74151L52.6489 5.74065ZM51.4439 13.7421C51.4491 13.7179 51.5979 13.0598 51.5979 13.0598C51.5979 13.0598 51.6912 12.9933 51.774 12.8931C51.8558 12.7973 51.9588 12.6306 51.9588 12.6306C51.9588 12.6306 51.737 13.6548 51.7159 13.7412C51.6578 13.9416 51.5909 14.0616 51.4122 14.015C51.3699 14.0029 51.2423 13.9908 51.2053 13.9804C51.3118 13.9597 51.4034 13.9036 51.4447 13.7429L51.4439 13.7421ZM50.9535 8.8704C50.9888 8.85658 51.0204 8.84104 51.0548 8.82549C51.1569 8.77367 51.1903 8.75813 51.1701 8.88767C51.1234 9.2003 50.9984 10.1149 50.9984 10.1149C50.9984 10.1149 50.9949 9.96374 50.9342 9.83765C50.8752 9.7107 50.8233 9.68306 50.8303 9.6347C50.8541 9.47234 50.9078 9.20635 50.9535 8.87126V8.8704ZM47.6737 12.0908C47.6552 12.2869 47.6719 12.5028 47.767 12.6505C47.6508 12.6194 47.5451 12.5019 47.4879 12.4276C47.4245 12.2946 47.4008 12.2256 47.414 12.0606C47.4201 11.9535 47.5698 10.513 47.7098 9.23657C47.7995 9.24694 47.9078 9.25557 47.9853 9.26421C47.8524 10.3688 47.6825 11.9665 47.6737 12.09V12.0908ZM48.0522 8.42823C47.9668 8.41614 47.8805 8.40664 47.7951 8.39455C47.8946 7.50502 47.9985 6.61549 48.0971 5.7251C48.1869 5.73806 48.2802 5.75101 48.3735 5.7631C48.2643 6.6509 48.1587 7.54043 48.0513 8.42736L48.0522 8.42823ZM52.3893 6.63708C52.3849 6.58959 52.332 6.50409 52.2449 6.4255C52.1921 6.37282 52.1349 6.31927 52.1349 6.26228C52.1384 5.93842 52.1173 5.90301 52.1173 5.81147C52.1146 5.70265 52.0512 5.63529 51.9879 5.59815C52.0512 5.61629 52.1164 5.6327 52.1762 5.64824C52.2872 5.67674 52.3778 5.73115 52.3796 5.87365C52.3831 6.05933 52.3875 6.54727 52.3893 6.63622C52.3893 6.63881 52.3901 6.64227 52.3893 6.64486C52.3893 6.65695 52.3893 6.65177 52.3893 6.63622V6.63708Z" fill="white"/>
<path d="M63.7676 8.73395C63.0731 8.43254 61.7791 7.99383 60.9393 7.7097C60.8715 7.68465 60.8399 7.66824 60.758 7.72956C60.7201 7.75374 60.7043 7.75892 60.6259 7.83838C60.5837 7.87983 60.537 7.92474 60.6321 7.9636C61.5353 8.32718 61.1031 9.11049 60.6321 9.58288C60.2149 10.0035 58.6013 11.5528 58.6013 11.5528C58.6013 11.5528 57.9851 8.85831 57.8786 8.303C57.802 7.90487 57.8909 7.30639 58.7791 7.4342C58.8742 7.44629 58.9006 7.43593 58.9684 7.36943C58.9922 7.34871 58.9966 7.3323 59.0732 7.25371C59.1189 7.20448 59.1145 7.16389 59.0195 7.12848C58.2677 6.88581 56.4323 6.40909 55.5213 6.22255C55.4535 6.207 55.4095 6.20096 55.3276 6.26314C55.2334 6.33655 55.2141 6.34086 55.1595 6.3875C55.1163 6.42463 55.1023 6.47386 55.1956 6.51186C55.9359 6.80722 56.0565 7.80901 56.1674 8.23823C56.2677 8.61304 56.9394 11.3991 56.9851 11.7065C57.03 11.9881 57.023 12.2126 56.9605 12.4596C56.81 13.0978 56.5582 13.8699 56.4843 14.0797C56.317 14.5426 56.1542 14.7931 55.6771 14.8199C55.567 14.8276 55.5618 14.8328 55.4931 14.8993C55.4412 14.9442 55.3118 15.0867 55.2545 15.1549C55.1947 15.218 55.2035 15.2543 55.3091 15.2759C55.9482 15.4209 57.6823 15.9788 58.3742 16.2224C58.4411 16.244 58.4825 16.2448 58.5679 16.1861C58.6515 16.1291 58.8064 16.0091 58.8839 15.9495C58.9279 15.9167 58.9455 15.8597 58.8531 15.8242C57.9755 15.4823 58.1101 14.9028 58.2246 14.4485C58.2668 14.287 58.6304 13.1894 58.685 12.9942C58.7871 12.6479 58.8927 12.552 59.1216 12.3421C60.1119 11.4457 61.9992 9.69774 62.1981 9.50343C62.6761 9.0483 62.9402 8.97058 63.4965 9.00858C63.6101 9.01721 63.6101 9.02326 63.6858 8.96626C63.7544 8.91185 63.7403 8.9179 63.8055 8.86263C63.8706 8.80995 63.8627 8.77799 63.7676 8.73567V8.73395ZM57.5855 7.43593C57.692 7.3798 57.9684 7.34611 57.9684 7.34611C57.6603 7.44457 57.4869 7.7926 57.5547 8.12337C57.6234 8.43773 58.376 11.7013 58.376 11.7013C58.2906 11.7799 58.2052 11.8559 58.1225 11.9337C58.1225 11.9337 57.3302 8.44809 57.2572 8.0966C57.2167 7.90488 57.2528 7.60865 57.5864 7.43593H57.5855ZM58.2255 15.9512C58.3135 15.8925 58.3769 15.8605 58.4411 15.7992C58.4763 15.7638 58.5538 15.8303 58.5899 15.8467C58.6726 15.8838 58.6603 15.8864 58.6128 15.921C58.5661 15.959 58.5661 15.9512 58.4799 16.0125C58.3962 16.0678 58.3461 16.0678 58.28 16.0445C58.2387 16.0272 58.1902 16.0134 58.1392 15.9952C58.1682 15.9857 58.1946 15.9728 58.2272 15.9503L58.2255 15.9512ZM63.1955 8.83585C62.5986 8.79699 62.302 8.98526 61.9006 9.35748C61.6972 9.5492 60.0784 11.1607 59.0916 12.039C58.8584 12.2463 58.5837 12.4121 58.4807 12.7558C58.427 12.9441 57.9015 14.5755 57.8584 14.7352C57.7765 15.0237 57.8777 15.18 57.9939 15.4494C57.876 15.4011 57.8205 15.3009 57.7545 15.2387C57.6145 15.0453 57.5406 14.7905 57.5996 14.572C57.6251 14.4658 57.9526 13.4372 58.0591 13.0684C58.111 12.8784 58.1806 12.7204 58.1973 12.6565C58.2941 12.3188 58.5336 12.1616 58.7712 11.9527C59.0828 11.6659 59.6233 11.1313 59.9983 10.7902C60.8046 10.0691 61.4279 9.38166 61.5634 9.25126C61.8513 8.97835 62.0934 8.84535 62.3865 8.78317C62.8231 8.6899 63.3072 8.84276 63.1963 8.83499L63.1955 8.83585Z" fill="white"/>
<path d="M71.279 12.8957C71.08 12.8689 70.9797 12.8163 70.7253 12.628C70.4163 12.4061 70.0035 11.8283 69.1487 11.3075C67.8098 10.4819 66.0361 10.367 65.0977 11.5891C64.6162 12.2178 64.3821 13.3655 65.1188 14.3017C65.4938 14.775 66.5105 15.8493 66.6945 16.0669C67.0669 16.5065 67.2086 16.871 67.1707 17.2043C67.1496 17.4124 67.0827 17.5998 66.9507 17.7743C66.5458 18.3011 65.537 18.4764 64.5933 17.8399C63.7738 17.2915 63.1831 16.2984 63.6602 15.0323C63.7034 14.9166 63.6594 14.8734 63.5484 14.895C63.4463 14.914 63.4428 14.9131 63.4375 14.9123C63.434 14.9123 63.4296 14.9105 63.3777 14.9192C63.2852 14.9382 63.2448 14.9572 63.1664 15.1109C63.059 15.3233 62.1647 17.0299 62.0493 17.2674C61.9983 17.3857 62.0397 17.4193 62.1347 17.4211C62.4569 17.428 62.5159 17.4677 62.728 17.5653C63.3178 17.8356 63.4974 18.2389 64.2579 18.739C65.706 19.676 67.5836 19.6319 68.5325 18.5826C69.1654 17.8753 69.5193 16.7095 68.8054 15.7439C68.36 15.1463 67.3336 14.0651 67.007 13.6548C66.7377 13.3223 66.5114 12.8508 66.7737 12.381C67.0722 11.8404 67.926 11.6556 68.7491 12.1496C69.632 12.6876 70.3837 13.7377 69.919 14.7223C69.838 14.895 69.8344 14.9477 69.9559 14.9416C70.0131 14.939 70.0299 14.9416 70.0422 14.9416C70.0545 14.9434 70.0624 14.9442 70.102 14.9416C70.1144 14.9416 70.1258 14.9416 70.1364 14.9416C70.1874 14.9425 70.2323 14.9434 70.2878 14.851C70.455 14.591 71.2851 13.3508 71.4128 13.1496C71.5193 12.9864 71.4832 12.9277 71.279 12.8949V12.8957ZM63.2553 16.9383C63.0573 16.5169 63.0115 16.1783 63.0775 15.9426C63.1356 15.7094 63.3134 15.5315 63.2861 15.6498C63.1541 16.2276 63.4252 17.0359 63.8028 17.4807C63.5546 17.339 63.4102 17.1879 63.2553 16.9383ZM68.7508 16.4659C68.7121 16.2543 68.7139 16.1403 68.6434 15.9313C68.6619 15.9616 68.6883 15.9883 68.7007 16.0168C69.2147 16.9521 68.8433 17.9367 68.3116 18.4876C67.6355 19.188 66.4269 19.3703 65.294 18.9264C65.566 18.9834 65.7606 19.011 66.1144 19.011C66.6549 19.011 67.5264 18.8858 68.0369 18.3702C68.5149 17.8814 68.8424 17.2544 68.7517 16.4659H68.7508ZM66.6127 12.1021C66.3855 12.3732 66.4234 12.8413 66.5202 13.1531C66.4155 13.0175 66.3028 12.7377 66.2782 12.5667C66.2588 12.4225 66.2509 12.1366 66.3988 11.9328C66.5871 11.6694 66.8855 11.6037 67.1135 11.5968C67.3125 11.5899 67.4524 11.615 67.6549 11.6772C67.1206 11.691 66.8891 11.7713 66.6135 12.1021H66.6127ZM71.1003 13.2869C70.9762 13.4856 70.6672 13.9364 70.507 14.1937C70.4339 14.3026 70.352 14.401 70.3661 14.3406C70.4093 14.1488 70.426 13.9174 70.4947 13.8077C70.6557 13.546 70.8045 13.3154 70.9313 13.1159C70.9497 13.084 70.9638 13.0624 70.9718 13.0399C71.0061 13.0451 71.0387 13.052 71.0791 13.0581C71.2781 13.0866 71.2024 13.1237 71.102 13.2869H71.1003Z" fill="white"/>
<path d="M17.1855 14.6851C16.7146 13.5201 15.4452 12.9674 13.9937 13.5642C14.5711 13.0356 14.7155 12.0926 14.3651 11.4207C13.8898 10.5104 12.7692 10.1814 11.5896 10.7712C10.6398 11.2479 8.22612 12.6522 7.65923 13.0408C7.59585 13.0805 7.58793 13.0779 7.56592 13.1833C7.558 13.2058 7.55095 13.2671 7.53863 13.3362C7.53071 13.3949 7.53071 13.4536 7.6249 13.4044C8.45763 12.9614 8.84143 13.9675 9.02893 14.2801C9.17857 14.5262 11.8828 18.9747 12.0157 19.2131C12.1794 19.5007 12.2032 20.0603 11.8836 20.3971C11.8018 20.48 11.8264 20.48 11.8229 20.5793C11.8185 20.6467 11.8132 20.5802 11.8185 20.6666C11.8194 20.7581 11.8616 20.7771 11.947 20.721C12.6539 20.2555 14.3149 19.3573 15.0192 18.9885C17.6688 17.6007 17.6098 15.7163 17.1846 14.6834L17.1855 14.6851ZM14.0429 11.5165C14.3123 11.9527 14.2472 12.7627 13.9875 13.1496C13.866 13.3344 13.7489 13.4493 13.7128 13.4553C13.7208 13.4346 13.7956 13.3491 13.8026 13.3275C14.1319 12.8111 14.05 12.1841 13.8079 11.7005C13.5438 11.1875 13.138 10.8386 12.565 10.7738C12.403 10.7557 12.491 10.7427 12.322 10.7634C12.2595 10.7617 13.4092 10.4949 14.0438 11.5157L14.0429 11.5165ZM11.0729 12.1383C11.7569 11.8119 12.4532 11.8982 12.7745 12.4846C13.0667 13.0166 13.0148 13.8258 12.2217 14.3026C12.0676 14.395 11.9585 14.4554 11.7886 14.515C11.6292 14.572 11.477 14.5349 11.3898 14.3915C11.3247 14.2775 10.3625 12.546 10.3625 12.546C10.3625 12.546 10.7543 12.2903 11.0729 12.1392V12.1383ZM11.1574 14.718C10.9999 14.6644 10.947 14.496 10.9374 14.4796C10.8881 14.395 9.98138 12.8318 9.98138 12.8318C10.0544 12.7765 10.1284 12.7204 10.2032 12.6677C10.2032 12.6677 11.1768 14.3786 11.2278 14.4623C11.3176 14.6083 11.3775 14.6411 11.4479 14.6653C11.4426 14.6705 11.2956 14.7611 11.1583 14.7188L11.1574 14.718ZM13.285 18.6137C13.2014 18.6016 13.0975 18.5136 13.006 18.359C12.9109 18.1975 11.5571 15.7819 11.5571 15.7819C11.6284 15.7336 11.7005 15.6861 11.7718 15.6351C11.7718 15.6351 13.1195 18.0368 13.2208 18.2018C13.3158 18.3598 13.4224 18.4686 13.5738 18.5066C13.4646 18.5585 13.3871 18.6301 13.2859 18.6146L13.285 18.6137ZM14.6653 18.1094C13.9197 18.5075 13.6442 18.3961 13.4215 18.0308C13.3176 17.8451 12.675 16.6982 12.0086 15.503C12.3652 15.2733 12.8211 14.9943 13.1187 14.8535C13.9461 14.4675 14.9575 14.458 15.4743 15.5686C15.9135 16.4979 15.6723 17.5705 14.6653 18.1085V18.1094ZM16.4082 17.6283C16.5429 17.4055 16.6441 17.1775 16.7128 16.9521C17.0209 16.2396 16.9786 15.5237 16.733 14.933C16.4382 14.23 15.8387 13.7827 15.0869 13.6972C14.9716 13.6851 14.9452 13.6756 14.8308 13.6782C14.7304 13.6687 14.6248 13.6661 14.5218 13.6687C15.5614 13.3932 16.6072 13.8846 16.9954 14.8328C17.2788 15.5185 17.3123 16.6084 16.4074 17.6292L16.4082 17.6283Z" fill="white"/>
<path d="M68.8327 25.4968C68.7394 25.4277 68.6478 25.3595 68.5589 25.2904C63.0528 21.0776 52.5988 16.5385 39.8903 16.5411C39.8903 16.4357 39.8859 16.4357 39.8859 16.5411C27.1774 16.5393 16.7225 21.0776 11.2208 25.2904C11.1293 25.3595 11.0368 25.4277 10.9462 25.4968C7.96116 21.3022 4.95856 17.1059 1.94099 12.9182C2.0255 12.8534 2.10913 12.793 2.19187 12.7308C5.84235 10.0009 19.3915 1.09352 39.8894 1.30943C60.3751 1.11166 73.9321 10.0017 77.5588 12.7118C77.6407 12.7748 77.7252 12.837 77.8088 12.8983C77.756 12.989 77.7032 13.0788 77.653 13.1686C74.6953 17.2751 71.757 21.3868 68.8327 25.4976M39.8903 0.0010476H39.8859C24.7197 -0.0809961 10.1882 4.66027 0 12.7092C3.5827 17.6128 7.14691 22.5277 10.6882 27.4416C15.8765 23.2177 26.306 17.8019 39.8859 17.8019H39.8903C53.4702 17.8019 63.9023 23.2177 69.0871 27.4416C72.6311 22.5285 76.1935 17.6137 79.7762 12.7092C69.5889 4.66027 55.0644 -0.0809961 39.8903 0.0010476Z" fill="white"/>
<path d="M72.5351 14.2291C72.573 14.2499 72.6117 14.2741 72.6504 14.2939C72.7103 14.3276 72.8062 14.3811 72.8635 14.2827C72.9207 14.1903 72.8274 14.1298 72.771 14.097C72.7349 14.0746 72.6962 14.0521 72.6566 14.0305C72.6161 14.0979 72.5738 14.1627 72.5351 14.23M72.5378 13.7101C72.6399 13.768 72.7402 13.8293 72.8415 13.8872C73.0624 14.0141 73.2384 14.1851 73.1047 14.4071C72.9999 14.5729 72.8247 14.6126 72.7165 14.5694C72.7235 14.7395 72.7305 14.9071 72.7367 15.0764C72.6513 15.0263 72.5642 14.9788 72.4797 14.9304V14.4468C72.4621 14.4381 72.4418 14.4243 72.4233 14.414C72.352 14.534 72.2807 14.6523 72.2076 14.7732C72.1293 14.7283 72.0518 14.6834 71.9753 14.6376C72.1628 14.3259 72.3503 14.0202 72.5378 13.7093M72.2349 14.99C72.5677 15.1843 72.9885 15.0686 73.1997 14.7309C73.4031 14.3932 73.3071 13.9744 72.9726 13.7783C72.639 13.5849 72.2147 13.7015 72.007 14.0409C71.8001 14.3786 71.9013 14.7983 72.2358 14.9909M73.0791 13.603C73.5228 13.8604 73.668 14.4209 73.4039 14.851C73.1443 15.281 72.5686 15.4261 72.1276 15.167C71.6839 14.9123 71.536 14.3518 71.8001 13.9217C72.0633 13.489 72.6399 13.3457 73.0791 13.603Z" fill="white"/>
<path d="M43.1112 33.8764C42.5311 33.8626 42.1394 33.7054 41.8375 33.3945C41.4088 32.9532 41.2398 32.1561 41.2125 31.6276C41.1781 30.9626 41.1834 30.4911 41.1834 30.4911C41.1834 30.4911 42.039 30.3909 42.8876 30.0601C43.7521 29.7233 44.2336 29.3347 44.2336 29.3347C44.2336 29.3347 45.0452 30.0143 45.1138 31.3175C45.2441 33.8384 43.2776 33.8799 43.113 33.8764M41.2442 28.0142C41.2442 28.0142 41.8023 28.0963 42.3674 28.2733C43.0496 28.4866 43.5161 28.7794 43.5161 28.7794C43.5161 28.7794 43.039 29.13 42.3463 29.3433C41.6966 29.5437 41.2054 29.5998 41.2054 29.5998C41.2195 29.0756 41.2442 28.0142 41.2442 28.0142ZM43.4272 23.9854C43.841 24.0148 44.7283 24.3067 44.9703 25.3638C45.2599 26.6238 44.3964 27.9287 44.2344 28.1058C44.2344 28.1058 43.5918 27.7508 42.7036 27.5029C42.0892 27.3319 41.8744 27.2983 41.3023 27.1955C41.3234 24.4164 42.7318 23.9362 43.4272 23.9854ZM40.4123 28.8459C40.4088 29.0203 40.4035 29.6672 40.4035 29.6672C40.4035 29.6672 40.0602 29.6819 39.8868 29.6819C39.7292 29.6819 39.3771 29.6672 39.3771 29.6672C39.3771 29.6672 39.3727 29.0212 39.3701 28.8459C39.3665 28.6809 39.3762 27.9192 39.3762 27.9192C39.3762 27.9192 39.6412 27.8968 39.8877 27.8968C40.1914 27.8968 40.4053 27.9192 40.4053 27.9192C40.4053 27.9192 40.4158 28.6818 40.4132 28.8459M38.5681 31.6267C38.5409 32.1553 38.371 32.9524 37.9423 33.3937C37.6403 33.7046 37.2486 33.8618 36.6685 33.8756C36.5039 33.879 34.5365 33.8376 34.6677 31.3167C34.7354 30.0135 35.5427 29.3373 35.5427 29.3373C35.5427 29.3373 36.04 29.7432 36.9669 30.0921C37.8366 30.4185 38.5972 30.4902 38.5972 30.4902C38.5972 30.4902 38.6025 30.9617 38.5673 31.6267M34.8111 25.3629C35.0532 24.3058 35.9397 24.0148 36.3543 23.9846C37.0488 23.9353 38.459 24.4155 38.4784 27.1946C37.9062 27.2974 37.6923 27.3302 37.077 27.5021C36.1888 27.7499 35.5471 28.1049 35.5471 28.1049C35.3842 27.9278 34.5207 26.6229 34.8111 25.3629ZM38.5769 29.6007C38.5769 29.6007 38.0849 29.5419 37.4352 29.3425C36.7425 29.1291 36.2654 28.7785 36.2654 28.7785C36.2654 28.7785 36.731 28.4857 37.4132 28.2724C37.9775 28.0954 38.5373 28.0133 38.5373 28.0133C38.5373 28.0133 38.562 29.0773 38.5761 29.6007M40.6253 34.3506C41.5047 34.4033 41.745 34.5527 42.7336 34.6278C43.7494 34.7029 45.7371 34.4412 46.4369 32.7045C47.1631 30.903 45.9703 29.5463 45.7899 29.3269C45.62 29.1205 45.3004 28.7958 44.9545 28.5462C45.0108 28.4918 45.1235 28.3873 45.1482 28.3614C45.6561 27.8294 46.3867 26.8786 46.4149 25.7438C46.4245 25.3655 46.2899 24.8275 46.0636 24.4803C45.1605 23.0976 43.6737 23.1831 42.9941 23.3593C42.6649 23.4448 41.7486 23.6987 40.9035 23.5554C40.2609 23.4474 40.1245 23.8524 40.1605 24.0839C40.2952 24.9553 40.3877 26.4243 40.3947 27.0927C40.2283 27.0832 40.0162 27.0755 39.8903 27.0755C39.7644 27.0755 39.5549 27.0824 39.3894 27.0927C39.3965 26.4234 39.488 24.9553 39.6236 24.0839C39.6597 23.8524 39.5232 23.4474 38.8815 23.5554C38.0356 23.6987 37.1201 23.4439 36.7891 23.3593C36.1087 23.1831 34.6228 23.0976 33.7196 24.4803C33.4934 24.8275 33.3596 25.3664 33.3693 25.7438C33.3966 26.8786 34.1281 27.8294 34.6351 28.3614C34.6597 28.3873 34.7724 28.4918 34.8288 28.5462C34.4828 28.7958 34.1633 29.1205 33.9934 29.3269C33.8138 29.5463 32.6202 30.903 33.3464 32.7045C34.0453 34.4412 36.0338 34.7029 37.0506 34.6278C38.0391 34.5527 38.2794 34.4033 39.1579 34.3506C39.3665 34.3376 39.5382 34.2038 39.576 34.082C39.6359 33.8842 39.5708 33.727 39.5329 33.4645C39.503 33.2641 39.4907 33.1346 39.4731 32.7883C39.4431 32.2278 39.393 30.5437 39.3912 30.5403C39.4405 30.5429 39.7239 30.5507 39.8885 30.5489C40.054 30.5481 40.3454 30.5429 40.3929 30.5403C40.3921 30.5437 40.3419 32.2278 40.3128 32.7883H40.312C40.2944 33.1346 40.282 33.2633 40.2521 33.4645C40.2134 33.727 40.1482 33.8842 40.209 34.082C40.2468 34.2029 40.4193 34.3376 40.6271 34.3506" fill="white"/>
<path d="M47.2802 23.5294V23.6719H47.0434V24.4172H46.87V23.6719H46.6341V23.5294H47.2802Z" fill="white"/>
<path d="M47.3524 24.4172V23.5303H47.5953L47.7687 24.1495H47.7714L47.9465 23.5303H48.1913V24.4172H48.0416V23.7203H48.039L47.8365 24.4172H47.7053L47.5046 23.7203H47.502V24.4172H47.3524Z" fill="white"/>
</svg>
