<svg width="90" height="29" viewBox="0 0 90 29" fill="none" xmlns="http://www.w3.org/2000/svg">
<path d="M44.7309 0C19.891 0 0 5.24135 0 5.24135V28.5575C0 28.5575 19.8937 23.2284 44.7309 23.2284C69.5708 23.2284 89.4645 28.5575 89.4645 28.5575V5.24135C89.4672 5.24135 69.5708 0 44.7309 0Z" fill="white"/>
<path d="M83.468 21.492L83.085 21.4149L82.7925 19.697L82.6782 21.3351L82.2128 21.242L82.4601 18.8939L82.9973 19.0003L83.2898 20.6597L83.5956 19.1173L84.1248 19.2237L84.3508 21.6649L83.8855 21.5744L83.7711 19.8911L83.468 21.492ZM81.6118 21.133L81.1411 21.0453V19.0827L80.7848 19.0163V18.5801L81.9708 18.8009V19.237L81.6145 19.1705V21.133H81.6118ZM68.0178 18.9099L68.0232 13.017L68.0178 7.09226L73.8921 7.98577V10.1158L70.1851 9.55737L70.1798 11.9773L73.1103 12.4772L73.1156 14.5381L70.1851 14.0727V19.1811L68.0178 18.9099ZM60.3965 8.3421L60.431 8.34476L62.1542 8.52559C62.2739 8.53091 62.3696 8.63196 62.3696 8.75428L62.367 15.9369C62.367 16.0672 62.2633 16.1789 62.133 16.1789C62.117 16.1789 62.0984 16.1789 62.0851 16.1789L60.3646 15.9821C60.2502 15.9688 60.1625 15.8677 60.1571 15.7454V8.58409C60.1625 8.45113 60.2662 8.3421 60.3965 8.3421ZM59.0376 18.0377L63.2924 18.3568L63.3668 18.3621L63.4253 18.3647C64.0875 18.3568 64.6326 17.8196 64.6513 17.1628V7.75441C64.6486 7.11354 64.1593 6.59765 63.537 6.5418L59.245 6.15887C59.2051 6.15621 59.1732 6.15355 59.136 6.15621C58.4606 6.16153 57.9128 6.71199 57.9101 7.39276L57.9128 16.8251C57.9101 17.4633 58.3994 17.9765 59.0376 18.0377ZM49.3101 17.567L47.2918 17.543V5.5898L49.8792 5.64298L51.9747 11.5677L52.4028 13.0569V5.73074L54.4425 5.81849L54.3866 17.7717L52.0172 17.6468L49.6425 11.0199L49.2676 9.74618L49.3101 17.567ZM77.9846 20.4868L75.719 20.1145L75.7216 8.24105L81.7102 9.38718V11.4694L77.982 10.6875L77.9846 13.2271L81.1438 13.852V15.8757L77.9846 15.2614V20.4868ZM13.7855 12.7511C14.4556 12.7511 15.0034 13.2909 15.022 13.9611V18.7131C15.0167 19.3008 14.6205 19.7795 14.0833 19.9151C14.0487 19.9204 14.0168 19.9284 13.9876 19.931L9.60516 20.8245C9.52273 20.8405 9.43763 20.8511 9.35785 20.8511C8.68507 20.8511 8.14524 20.314 8.12131 19.6545V19.6093L8.11865 17.1442L10.4348 16.7479L10.3524 18.5057L10.3551 18.527C10.3524 18.6599 10.4561 18.761 10.5944 18.761C10.613 18.761 10.6343 18.761 10.6529 18.7557L12.4878 18.3195C12.5941 18.2956 12.6766 18.1972 12.6766 18.0829V15.4024C12.6766 15.2721 12.5702 15.163 12.4346 15.163C12.4213 15.163 12.408 15.1657 12.3947 15.1657L9.57857 15.6763C9.50411 15.6896 9.43497 15.6975 9.35254 15.6975C8.67177 15.6949 8.11865 15.1391 8.12131 14.4557V10.169C8.13461 9.56535 8.5654 9.07871 9.13714 8.98032L13.3813 8.18255C13.477 8.16127 13.5727 8.14798 13.6764 8.14532C14.3333 8.14532 14.8704 8.66121 14.913 9.3074V11.4188L12.6739 11.823L12.6766 10.5892C12.6739 10.4588 12.5702 10.3472 12.4399 10.3472C12.4186 10.3472 12.3947 10.3472 12.3761 10.3605L10.5306 10.7487C10.4269 10.778 10.3418 10.8764 10.3418 10.988L10.3444 13.1074C10.3418 13.2404 10.4508 13.3441 10.5784 13.3494C10.5971 13.3494 10.6104 13.3494 10.6236 13.3441L13.5302 12.7777L13.5515 12.7671C13.6312 12.7591 13.703 12.7484 13.7855 12.7511ZM33.9557 5.86104L33.9637 17.8116L31.5571 17.9526L31.6289 5.99666L33.9557 5.86104ZM27.2173 6.33704L29.2064 18.1254L26.8928 18.3142L25.8318 11.3391L25.7174 10.4828L25.5871 11.605L24.2363 18.5748L21.9732 18.8248L20.8085 11.8284L20.6968 10.8631L20.625 11.9241L19.5374 19.12L17.1175 19.4524L19.3885 7.18534L21.7446 6.90878L22.9306 13.4079L23.1566 15.296L23.4066 13.4664L24.5952 6.58435L27.2173 6.33704ZM41.0346 10.6982L39.5534 11.714V7.73048L41.2793 7.6374C41.4122 7.64272 41.5159 7.74643 41.5159 7.87674L41.5186 9.32868C41.5213 10.0679 41.391 10.4562 41.0346 10.6982ZM43.3056 11.5545L43.3295 11.5412C43.6247 11.3231 43.8295 10.9694 43.8295 10.5732V6.83166L43.8348 6.77582V6.75188C43.8029 6.10303 43.2737 5.59246 42.6062 5.58448H42.5504L37.4766 5.71212L37.3622 5.7068V17.6574L39.5587 17.5856V14.1898L40.7315 13.3175L42.1276 17.5377L44.5528 17.5218L42.5265 12.1049L43.3056 11.5545Z" fill="#090909"/>
</svg>
