<svg width="115" height="31" viewBox="0 0 115 31" fill="none" xmlns="http://www.w3.org/2000/svg">
<path d="M25.3989 0C23.6171 0 21.7613 0.742509 20.1278 2.15283C17.9005 4.00867 17.0839 5.79039 17.0839 9.20534V22.7911C17.0839 28.2847 19.9049 30.512 23.6912 30.512C25.5471 30.512 27.1062 29.918 28.4424 28.8043C30.7437 26.9485 31.4862 25.1668 31.4862 21.3063V7.20101C31.4862 2.00433 28.9623 0 25.3989 0ZM27.5517 27.9136C26.8092 28.6561 25.8441 28.9528 24.6563 28.9528C21.5384 28.9528 20.1278 26.6515 20.1278 22.494V7.79472C20.1278 4.52827 20.3504 3.63726 21.2414 2.74655C21.8354 2.15254 22.8005 1.78143 24.1367 1.78143C27.1062 1.78143 28.4427 4.00867 28.4427 7.57212V21.8259C28.4427 25.1668 28.5165 26.9485 27.5517 27.9136Z" fill="#FAF6EF"/>
<path d="M93.4012 14.8478H93.2527V11.507L93.1042 11.4329L89.5408 12.8435V13.0661C90.2089 13.6601 90.4315 14.5508 90.4315 16.6296V21.7521C90.4315 23.608 90.2089 24.7216 89.5408 25.3156V25.5382H94.1434V25.3156C93.4753 24.7216 93.2527 23.608 93.2527 21.7521V18.2628C93.2527 15.7385 94.2178 14.3282 96.3707 14.3282L97.7069 11.4329C95.1826 11.4329 94.0696 12.5465 93.4012 14.8478Z" fill="#FAF6EF"/>
<path d="M37.0544 21.7518V4.89968L36.9058 4.82557L33.3424 6.23619V6.4588C34.0105 7.05281 34.2331 7.94352 34.2331 10.0223V21.7518C34.2331 23.6077 34.0105 24.7213 33.3424 25.3153V25.5379H37.9451V25.3153C37.277 24.7213 37.0544 23.6077 37.0544 21.7518Z" fill="#FAF6EF"/>
<path d="M62.4438 0H59.8454C58.3607 0 57.0245 0.519609 54.9457 2.00433L52.9414 3.26645L53.5354 4.15717L55.1686 3.11795C56.4308 2.30134 57.3215 2.00433 58.9547 2.00433H62.147C65.4879 2.00433 66.9726 3.86016 66.9726 8.90864C66.9726 13.0661 65.562 15.887 62.6667 15.887C60.959 15.887 59.6972 15.0704 59.6972 12.4721V2.74684L59.5487 2.67274L55.6141 5.04847V5.27108C56.3566 5.86509 56.6534 6.7558 56.6534 8.83453V25.8352C56.6534 28.5076 56.3564 29.4727 55.6882 30.2894L55.8367 30.512L61.9985 27.097L61.9244 26.8C60.3653 27.1711 59.6972 26.5774 59.6972 24.6472V15.7385H59.8457C60.4397 16.6293 61.4789 17.2977 63.1122 17.2977C67.3437 17.2977 70.0906 13.5116 70.0906 8.68603C70.0906 3.86046 67.8633 0 62.4438 0Z" fill="#FAF6EF"/>
<path d="M85.0866 14.8478H84.9381V11.507L84.7896 11.4329L81.2261 12.8435V13.0661C81.8942 13.6601 82.1169 14.5508 82.1169 16.6296V21.7521C82.1169 23.608 81.8942 24.7216 81.2261 25.3156V25.5382H85.8288V25.3156C85.1607 24.7216 84.9381 23.608 84.9381 21.7521V18.2628C84.9381 15.7385 85.9032 14.3282 88.056 14.3282L89.3923 11.4329C86.868 11.4329 85.755 12.5465 85.0866 14.8478Z" fill="#FAF6EF"/>
<path d="M79.5188 11.804L79.3703 11.7299H76.772C71.1298 11.7299 68.8284 14.5508 68.8284 19.6734C68.8284 23.9794 70.7587 25.7611 73.4311 25.7611C75.0643 25.7611 76.1779 24.9445 76.6976 24.1279H76.8461C76.9202 24.6475 76.9946 25.093 77.1431 25.5385H80.4095V25.3159C79.7414 24.6478 79.5188 23.6827 79.5188 21.7524V11.804ZM76.6976 21.6033C76.6976 23.3851 75.8068 24.2758 74.6188 24.2758C72.763 24.2758 71.7235 22.6426 71.7235 19.4502C71.7235 13.5854 74.1733 12.6203 75.955 12.6203C76.5491 12.6203 76.6976 12.7688 76.6976 13.2884V21.6033Z" fill="#FAF6EF"/>
<path d="M49.9719 4.89968L49.8234 4.82557L46.26 6.23619V6.4588C46.9281 7.05281 47.1507 7.94352 47.1507 10.0223V11.7299C41.5829 11.9525 39.2813 14.5508 39.2813 19.6734C39.2813 23.9794 41.2115 25.7611 43.884 25.7611C45.5172 25.7611 46.6308 24.9445 47.1504 24.1279H47.2989C47.373 24.6475 47.4474 25.093 47.5959 25.5385H50.8624V25.3159C50.1943 24.6478 49.9716 23.6827 49.9716 21.7524L49.9719 4.89968ZM47.1507 21.6033C47.1507 23.3851 46.26 24.2758 45.072 24.2758C43.2161 24.2758 42.1766 22.6426 42.1766 19.4502C42.1766 13.5854 44.6265 12.6203 46.4082 12.6203C47.0022 12.6203 47.1507 12.7688 47.1507 13.2884V21.6033Z" fill="#FAF6EF"/>
<path d="M2.34267 16.2883H2.1983C2.03681 16.2883 2.01939 16.1617 1.97333 15.8907C1.91576 15.5449 1.8638 15.4009 1.44841 15.4009H0.900164V16.9222H1.19451C1.4369 16.9222 1.46583 16.8071 1.49447 16.686C1.50598 16.6284 1.52901 16.5535 1.62703 16.5535H1.78852V17.6254H1.62703C1.5231 17.6254 1.50008 17.5333 1.48266 17.4642C1.44811 17.3258 1.40176 17.1991 1.1768 17.1991H0.899868V18.8819H1.47675C1.96152 18.8819 2.05954 18.6688 2.1115 18.2941C2.15195 18.0001 2.16907 17.9139 2.35389 17.9139H2.48084V19.1586H0V19.0089C0 18.9398 0.0519611 18.9168 0.109531 18.8994C0.178616 18.8763 0.2539 18.8359 0.2539 18.6977V15.586C0.2539 15.488 0.224967 15.4248 0.109531 15.3843C0.0575705 15.3669 0 15.3498 0 15.2748V15.1251H1.91547C2.09999 15.1251 2.22694 15.0791 2.34237 15.0445V16.2892L2.34267 16.2883Z" fill="#FAF6EF"/>
<path d="M4.05066 15.0433C4.29866 15.0433 4.44864 15.1123 4.55846 15.1643C4.64497 15.2048 4.6739 15.2163 4.70844 15.2163C4.7545 15.2163 4.79495 15.1988 4.82388 15.1242H5.08929V16.2883H4.9278C4.80085 16.2883 4.74328 16.1037 4.69693 15.9481C4.60452 15.6429 4.50089 15.2853 4.0855 15.2853C3.78555 15.2853 3.58361 15.4985 3.58361 15.8327C3.58361 16.2534 3.95294 16.4725 4.35682 16.7087C4.84159 16.9909 5.33758 17.285 5.33758 17.9419C5.33758 18.5987 4.91068 19.2385 4.10292 19.2385C3.84902 19.2385 3.68162 19.1809 3.55467 19.1349C3.47969 19.106 3.39879 19.0714 3.34122 19.0714C3.29517 19.0714 3.25472 19.1175 3.23169 19.1579H2.96628V17.9593H3.12216C3.26653 17.9593 3.3241 18.1264 3.39909 18.3454C3.50301 18.6566 3.62996 18.9967 4.04535 18.9967C4.50119 18.9967 4.69161 18.6855 4.69161 18.2707C4.69161 17.7579 4.33379 17.5158 3.92991 17.2681C3.48559 16.9974 3.04127 16.7323 3.04127 16.104C3.04127 15.5567 3.38137 15.0433 4.05066 15.0433Z" fill="#FAF6EF"/>
<path d="M5.75859 15.0433C5.85099 15.0722 5.98355 15.1239 6.12202 15.1239H8.06642C8.21079 15.1239 8.34334 15.0719 8.43575 15.0433V16.2074H8.27987C8.15882 16.2074 8.12399 16.0462 8.10096 15.9307C8.049 15.683 7.99143 15.4005 7.65663 15.4005H7.42015V18.6852C7.42015 18.7889 7.44318 18.8583 7.56452 18.8984C7.62209 18.9158 7.67405 18.9389 7.67405 19.0079V19.1576H6.51999V19.0079C6.51999 18.9389 6.56605 18.9214 6.62952 18.8984C6.70451 18.8695 6.77389 18.8349 6.77389 18.6968V15.4005H6.5315C6.20262 15.4005 6.14505 15.6886 6.09869 15.9077C6.07567 16.0228 6.04112 16.2074 5.91978 16.2074H5.75829L5.75859 15.0433Z" fill="#FAF6EF"/>
<path d="M8.70707 18.478C8.90901 18.478 9.0705 18.6277 9.0705 18.8411C9.0705 19.0546 8.90901 19.2043 8.70707 19.2043C8.50513 19.2043 8.34364 19.0546 8.34364 18.8411C8.34364 18.6277 8.50513 18.478 8.70707 18.478Z" fill="#FAF6EF"/>
<path d="M106.154 15.0433V18.6451C106.154 18.7948 106.263 18.8352 106.379 18.8642C106.488 18.8931 106.558 18.9161 106.558 18.9967V19.1579H105.15V18.9967C105.15 18.9102 105.236 18.8872 105.329 18.8642C105.421 18.8411 105.554 18.8066 105.554 18.6451V15.5505H105.029V15.3893L105.773 15.0436L106.154 15.0433Z" fill="#FAF6EF"/>
<path d="M108.404 15.0433C109.033 15.0433 109.356 15.5215 109.356 15.9883C109.356 16.4031 109.12 16.6682 108.779 16.9103C109.154 17.1695 109.472 17.4922 109.472 18.0168C109.472 18.6968 109.16 19.2385 108.352 19.2385C107.672 19.2385 107.302 18.8007 107.302 18.2014C107.302 17.7287 107.55 17.3945 108.029 17.1294C107.7 16.8817 107.418 16.5991 107.418 16.0978C107.418 15.5965 107.729 15.0433 108.404 15.0433ZM107.81 18.23C107.81 18.7833 108.087 19.0194 108.41 19.0194C108.791 19.0194 108.998 18.6563 108.998 18.3106C108.998 17.8553 108.75 17.6478 108.254 17.2906C107.948 17.4981 107.81 17.8034 107.81 18.23ZM107.867 15.8041C107.867 16.1152 107.954 16.2939 108.571 16.7606C108.785 16.5705 108.883 16.3514 108.883 15.9827C108.883 15.5218 108.698 15.2623 108.363 15.2623C108.063 15.2623 107.867 15.5044 107.867 15.8041Z" fill="#FAF6EF"/>
<path d="M110.02 15.0433C110.129 15.0722 110.325 15.1239 110.55 15.1239H112.12V15.51C112.033 15.6712 111.941 15.8386 111.854 15.9883C111.52 16.5646 111.214 17.2274 111.214 18.2185C111.214 18.3741 111.226 18.5066 111.243 18.6392C111.254 18.7428 111.26 18.8122 111.26 18.8639C111.26 19.1 111.139 19.2385 110.903 19.2385C110.62 19.2385 110.51 19.0425 110.51 18.7313C110.51 17.9244 111.001 16.9623 111.451 16.1439L111.751 15.5965H110.816C110.591 15.5965 110.401 15.637 110.303 15.9653C110.251 16.1383 110.222 16.1613 110.13 16.1613H109.98L110.02 15.0433H110.02Z" fill="#FAF6EF"/>
<path d="M114.012 15.0433V18.6451C114.012 18.7948 114.121 18.8352 114.237 18.8642C114.346 18.8931 114.416 18.9161 114.416 18.9967V19.1579H113.008V18.9967C113.008 18.9102 113.094 18.8872 113.187 18.8642C113.279 18.8411 113.412 18.8066 113.412 18.6451V15.5505H112.887V15.3893L113.631 15.0436L114.012 15.0433Z" fill="#FAF6EF"/>
</svg>
