<svg width="92" height="21" viewBox="0 0 92 21" fill="none" xmlns="http://www.w3.org/2000/svg">
<path d="M28.5087 12.5941C28.5787 12.4709 28.6681 12.2688 28.7109 12.1745L31.1057 6.15365L33.4675 12.2265C33.5025 12.3419 33.5803 12.5017 33.6347 12.6441L33.3431 12.7C32.6764 12.8867 31.926 13.0118 31.1543 13.0118C30.3826 13.0118 29.6828 12.9117 28.9383 12.6961C28.8061 12.6634 28.6079 12.5941 28.5087 12.5941ZM4.13266 3.41656C6.80158 3.41656 8.69491 3.98823 9.869 5.07382C11.2822 6.33651 11.9936 8.04575 11.9917 10.138C11.9917 12.1668 11.29 13.8241 9.94676 15.1445C8.77461 16.2898 6.8424 16.8826 4.12488 16.8807H3.26375L3.26958 3.41656H4.13266ZM86.6322 5.17969C87.9754 6.52899 88.6266 8.19588 88.6247 10.1727C88.6247 12.136 87.9463 13.7971 86.6283 15.1791C85.3085 16.54 83.732 17.2252 81.8659 17.2252C78.0987 17.2252 75.1246 14.0435 75.1265 10.1669C75.1265 8.21321 75.7952 6.53861 77.1092 5.16622C78.4077 3.79382 80.0192 3.12591 81.8736 3.12591C83.7184 3.12591 85.3065 3.81499 86.6342 5.17969M54.9958 6.34613L57.3712 4.23075C55.3302 1.40127 52.5932 0 49.3781 0C43.8944 0 39.4741 4.5214 39.4721 10.1919C39.4721 15.7527 43.8633 20.3357 49.2323 20.3376C50.5716 20.3376 51.8779 20.0297 53.1472 19.4445C54.3524 18.8613 55.4138 18.0721 56.2904 17.052C57.0991 16.0876 57.6375 14.9751 57.9486 13.7817C58.211 12.7962 58.3607 11.5739 58.2887 10.1111L58.2576 9.52593L49.6774 9.52208V12.6268H54.9453C54.8131 13.8375 54.2008 14.9097 53.1492 15.7816C51.9848 16.7556 50.6591 17.2098 49.1895 17.2098C47.4789 17.2098 45.9452 16.4842 44.5359 15.0425C43.2549 13.7066 42.6153 12.0975 42.6153 10.2092C42.6153 8.24785 43.2801 6.53669 44.6603 5.12387C45.951 3.75917 47.5314 3.11051 49.3217 3.11051C51.6465 3.11051 53.4796 4.20573 54.99 6.34421M34.8457 15.7104L36.5991 20.0201H40.0572L31.9571 0.250227H30.3807L22.0357 20.0162H25.4841L27.3171 15.6218C27.3482 15.5102 27.3677 15.4217 27.3735 15.3447C27.4629 15.3889 27.5834 15.4236 27.7156 15.4736C28.7362 15.8798 29.9588 16.1242 31.1485 16.1242C32.3381 16.1242 33.4986 15.8817 34.177 15.6257C34.5366 15.514 34.6513 15.4544 34.7602 15.3928C34.7719 15.464 34.8224 15.6488 34.8457 15.7142M4.02769 20.0085C7.5247 20.0085 10.2053 19.1982 12.0267 17.4908C14.0872 15.5949 15.1291 13.1523 15.131 10.1727C15.131 7.06986 14.0794 4.55412 11.9645 2.6986C10.1742 1.10677 7.51887 0.307971 4.07045 0.306046H0.00971933L0 20.0066H4.02769V20.0085ZM17.6795 20.0143H20.7974L20.8071 0.313746H17.6892L17.6795 20.0143ZM70.1074 10.8502V7.7551H63.4614V3.44158H70.7023V0.334919L60.3356 0.329144L60.3259 20.0335L70.7159 20.0374V16.9115L63.4536 16.9076L63.4575 10.8502H70.1074ZM74.8932 3.00464C72.9455 4.96411 71.9872 7.39516 71.9852 10.1977C71.9852 15.8605 76.4036 20.3511 81.86 20.355C87.332 20.355 91.7368 15.9067 91.7407 10.2054C91.7407 7.41633 90.761 5.0257 88.8541 3.02582C86.9374 1.02015 84.6009 0.0153986 81.8698 0.0153986C79.1386 0.0153986 76.8196 1.01438 74.8932 3.00464Z" fill="white"/>
</svg>
