<svg width="72" height="31" viewBox="0 0 72 31" fill="none" xmlns="http://www.w3.org/2000/svg">
<path d="M37.7372 13.9788V7.0805C37.7372 6.94358 37.8499 6.83082 37.9909 6.83082H39.4346V4.48005H37.717V0C36.4958 1.45577 33.8581 2.54004 33.8581 2.54004C33.8581 2.54004 33.5763 2.64877 33.8863 3.14913C33.8863 3.14913 34.2447 3.31826 34.2447 5.38311L34.289 11.9069C34.289 11.9069 33.7887 18.7327 39.6148 19.2934C37.4734 17.7088 37.7362 13.9798 37.7362 13.9798L37.7372 13.9788Z" fill="white"/>
<path d="M19.5665 6.51173L12.5192 8.90277C12.5192 8.90277 13.4021 9.6085 13.4021 11.1931V20.4422C13.4021 20.4422 13.4625 21.7208 12.934 22.5956L17.8449 20.4996C17.8449 20.4996 16.962 20.3465 16.9459 18.6371C16.9298 16.9195 16.9459 9.82394 16.9459 9.82394L17.115 9.64273L17.3647 9.48568C17.3647 9.48568 18.8366 8.86854 18.8366 10.7149V14.598L22.3965 13.6385V8.02588C22.3965 8.02588 22.4569 5.77176 19.5665 6.51374V6.51173Z" fill="white"/>
<path d="M11.2847 12.1324V8.57652C11.2203 4.16996 7.11171 6.21368 7.11171 6.21368C2.66085 8.09228 0 10.1893 0 10.1893C0 10.1893 0.919166 11.1327 0.919166 12.072V27.9012C0.919166 27.9012 0.882923 29.9932 0.201351 30.9496C0.527539 30.7926 4.23743 27.8569 4.23743 27.8569C4.78208 27.4209 8.90574 24.7923 8.90574 24.7923C11.3451 23.1392 11.2686 20.5227 11.2686 20.5227V16.8057C11.329 14.5436 9.57121 14.612 9.57121 14.612C11.3089 13.6284 11.2887 12.1324 11.2847 12.1324ZM5.08411 10.1249L5.96703 9.64066C5.96703 9.64066 7.24561 8.89466 7.24561 10.9313V13.1049C7.24561 13.1049 7.35031 14.4801 5.95897 15.1969L5.08411 15.5956V10.1249ZM6.16435 23.4785L5.04786 24.1601V18.3138L5.88246 17.7571C5.88246 17.7571 7.24963 17.0151 7.24963 19.0226V21.5425C7.24963 21.5425 7.41474 22.808 6.16536 23.4775L6.16435 23.4785Z" fill="white"/>
<path d="M27.4441 12.7324C27.6576 12.4747 32.6168 12.0508 32.6168 12.0508V6.9184C32.6168 4.47501 30.8993 4.66026 30.8993 4.66026L25.6219 5.31364C25.6219 5.31364 23.7675 5.56331 23.7675 7.29292V16.405C23.7675 16.405 23.5822 18.7598 26.1867 18.3078L30.6537 17.6383C32.7175 17.4571 32.6168 16.0013 32.6168 16.0013V13.2962C31.8145 13.3727 29.2019 13.6989 29.2019 13.6989V14.5375C29.1979 15.058 28.7831 15.4688 28.2586 15.4688C27.7341 15.4688 27.3113 15.054 27.3113 14.5375V12.8079L27.4441 12.7314V12.7324ZM27.3113 8.21309C27.3113 7.71676 27.7301 7.31406 28.2425 7.31406C28.7549 7.31406 29.1737 7.71676 29.1737 8.21309V10.5961L27.3113 10.8015V8.21309Z" fill="white"/>
<path d="M52.3404 5.07599C52.3404 5.07599 53.9653 4.9431 55.6788 5.91462C55.6788 5.91462 57.7749 6.95459 59.1622 6.20053C59.1622 6.20053 60.1739 5.56729 60.2706 4.56355C60.2706 4.56355 60.3793 4.04709 59.9484 4.27361C59.9484 4.27361 58.0537 4.52328 57.2272 3.90715C57.2272 3.90715 54.8522 2.67388 53.6673 3.02423C53.6673 3.02423 52.3646 3.26585 52.0786 4.32697L51.9699 4.62497C51.9699 4.62497 51.7122 5.24613 52.3404 5.077V5.07599Z" fill="white"/>
<path d="M61.964 26.8521C61.1414 25.5574 61.0206 23.1633 61.0206 23.1633V13.1321L61.0085 12.9388C61.0085 8.6973 57.3158 7.72981 57.3158 7.72981L57.1185 7.63317L51.393 6.08075C51.393 6.08075 51.9981 6.9234 51.9981 8.66911V18.1195C51.9981 18.1195 51.833 19.389 51.3367 19.389L56.1751 21.0421C55.711 20.5861 55.6103 19.2642 55.6103 19.2642L55.6023 9.56009C57.8202 10 57.5171 12.4183 57.5171 12.4183V20.2639C57.5171 25.054 61.4847 27.3152 61.4847 27.3152L61.6982 27.4118C62.4885 27.734 62.0606 27.0414 62.0606 27.0414L61.9599 26.8481L61.964 26.8521Z" fill="white"/>
<path d="M49.5585 17.9867L49.5504 8.68525C49.5504 6.51973 46.9943 5.30256 46.9943 5.30256C43.0387 3.91123 41.1078 5.16967 41.1078 5.16967C40.7051 5.46364 40.3618 5.98413 40.3618 6.5006C40.3618 7.38755 41.1118 8.10939 42.039 8.10939C42.7367 8.10939 43.3176 7.71474 43.5713 7.13787C43.5713 7.13787 46.1355 6.97276 45.8738 9.49267L42.3179 9.25508C40.697 9.31951 40.4715 10.7431 40.4715 10.7431V15.3671C40.4715 17.5044 43.1082 17.7058 43.1082 17.7058L49.9662 18.927C49.5635 18.7699 49.5595 17.9836 49.5595 17.9877L49.5585 17.9867ZM45.8617 15.7446L45.5959 15.7124C43.9106 15.4345 44.0515 14.3935 44.0515 14.3935V12.7163C44.0515 11.2927 44.9465 11.4911 44.9465 11.4911L45.164 11.5032L45.8617 11.624V15.7446Z" fill="white"/>
<path d="M71.4958 26.7232V18.3772H71.4837C71.4837 15.2361 70.6652 14.2807 70.6652 14.2807C68.2339 11.043 64.2915 10.7048 64.2915 10.7048C63.2515 10.7048 62.3243 11.5313 62.3243 12.5511C62.3243 13.571 63.171 14.4056 64.2109 14.4056C64.8442 14.4056 65.4281 14.1156 65.7714 13.6555C65.7714 13.6555 68.1101 14.2646 67.8272 17.2074L65.1905 15.8644C64.9771 15.7758 64.5975 15.667 64.3438 15.667C63.3321 15.667 62.5297 16.4694 62.5297 17.4651V21.8958C62.5297 21.8958 62.4693 23.8912 64.5734 25.206C64.5734 25.206 70.4961 28.9673 71.8472 30.3586C71.4324 29.8663 71.4968 26.7222 71.4968 26.7222L71.4958 26.7232ZM67.8192 24.2919C65.7473 23.4533 65.9365 21.6794 65.9365 21.6794V20.2236C65.9365 18.6027 67.2101 19.244 67.2101 19.244L67.8192 19.5219V24.2919Z" fill="white"/>
</svg>
