<svg width="63" height="33" viewBox="0 0 63 33" fill="none" xmlns="http://www.w3.org/2000/svg">
<path d="M1.81822 30.8258V27.8484C1.81822 27.6043 1.8792 27.5311 2.13546 27.5311H5.74746V26.6159H1.39112C0.488123 26.6159 0 26.9332 0 28.0681V30.6306C0 31.741 0.488123 32.0705 1.39112 32.0705H5.88167V31.1553H2.14767C1.89142 31.1553 1.83039 31.0943 1.83039 30.8258H1.81822Z" fill="#F1F1F1"/>
<path d="M11.9969 28.7756H9.08042V26.628H7.23785V32.0703H9.08042V29.642H11.9969V32.0703H13.8273V26.628H11.9969V28.7756Z" fill="#F1F1F1"/>
<path d="M25.6194 31.0819C25.5828 31.1551 25.5462 31.1673 25.4242 31.1673C25.3022 31.1673 25.2656 31.1673 25.229 31.0819L23.4596 26.628H16.6017C15.6987 26.628 15.2106 26.9452 15.2106 28.0801V30.6426C15.2106 31.7531 15.6987 32.0703 16.6017 32.0703H21.2265V31.1551H17.3461C17.0898 31.1551 17.0288 31.0941 17.0288 30.8379V29.7274H20.8848V28.8244H17.0288V27.8604C17.0288 27.6042 17.0898 27.5432 17.3461 27.5432H21.7512L23.423 31.4724C23.545 31.7531 23.7769 32.0703 24.2528 32.0703H25.9611C26.437 32.0703 26.5957 31.7531 26.7299 31.4724C26.8519 31.1917 28.7799 26.628 28.7799 26.628H27.3766L25.6072 31.0819H25.6194Z" fill="#F1F1F1"/>
<path d="M42.6263 26.628H38.7947C37.8917 26.628 37.4036 26.9452 37.4036 28.0679V30.6426C37.4036 31.7531 37.8917 32.0703 38.7947 32.0703H42.6263C43.5293 32.0703 44.0174 31.7531 44.0174 30.6426V28.0679C44.0174 26.933 43.5293 26.628 42.6263 26.628ZM42.1992 30.8379C42.1992 31.0941 42.1382 31.1551 41.8819 31.1551H39.539C39.2828 31.1551 39.2218 31.0941 39.2218 30.8379V27.836C39.2218 27.592 39.2706 27.5188 39.539 27.5188H41.8819C42.1382 27.5188 42.1992 27.5798 42.1992 27.836V30.8379Z" fill="#F1F1F1"/>
<path d="M47.1391 26.628H45.3087V32.0703H50.4216V31.1551H47.1391V26.628Z" fill="#F1F1F1"/>
<path d="M50.8228 28.0769V30.6394C50.8228 31.7499 51.3108 32.0793 52.2138 32.0793H56.8509V31.1642H52.9704C52.7141 31.1642 52.6532 31.1031 52.6532 30.8469V29.7242H56.497V28.8212H52.6532V27.8572C52.6532 27.601 52.7141 27.54 52.9704 27.54H59.0229V32.0793H60.8533V27.54H62.9522V26.637H52.2261C51.3231 26.637 50.8349 26.9542 50.8349 28.0891L50.8228 28.0769Z" fill="#F1F1F1"/>
<path d="M33.7379 30.0203V29.9715H35.068C35.6781 29.9715 36.2272 29.6298 36.2272 28.8V27.8604C36.2272 26.9574 35.7635 26.628 35.068 26.628H29.3572V32.0703H31.1631V27.5187H34.1772C34.348 27.5187 34.3846 27.5676 34.3968 27.6652V29.0319C34.3968 29.1173 34.2992 29.1783 34.1772 29.1783H31.6757V30.0081L34.2016 32.0825H36.7154L34.3358 30.3132L33.7257 30.0325L33.7379 30.0203Z" fill="#F1F1F1"/>
<path d="M21.2326 20.4882H41.672V16.022H57.0595L62.9412 4.46616H41.672V0H21.2326V4.46616H5.88167L0 16.022H21.2326V20.4882ZM6.93112 13.4473L10.1892 7.06532H23.8317V2.59916H39.0972V7.06532H56.0345L52.7764 13.4473H39.0972V17.9135H23.8317V13.4473H6.93112Z" fill="#F1F1F1"/>
</svg>
