<svg width="195" height="28" viewBox="0 0 195 28" fill="none" xmlns="http://www.w3.org/2000/svg">
<path fill-rule="evenodd" clip-rule="evenodd" d="M20.9406 2.61203H27.8151L36.6493 12.7626V27.4891H0V12.7626L8.86687 2.61203H15.7084V0H20.9406V2.61203ZM2.61074 24.8693H17.0031V15.3827H2.61074V24.8693ZM19.6297 24.8693H34.0305V15.3827H19.6297V24.8693ZM3.30418 12.7548H16.3682L9.92579 5.18396L3.30418 12.7548ZM19.6711 12.7445H33.383L26.8102 5.20595H13.0657L19.6711 12.7445Z" fill="white"/>
<path d="M63.019 21.1862H59.0324V15.7241H53.0178V21.1862H49.0168V7.18397H53.0178V12.3317H59.0324V7.18397H63.019V21.1862Z" fill="white"/>
<path d="M75.5736 13.9005C75.5736 13.369 75.4953 12.8825 75.3448 12.444C75.1912 12.0025 74.9564 11.6211 74.6523 11.2968C74.3422 10.9724 73.9659 10.7232 73.5203 10.54C73.0778 10.3568 72.5599 10.2697 71.9789 10.2697C70.8589 10.2697 69.9858 10.6031 69.3446 11.2728C68.7093 11.9425 68.3872 12.8134 68.3872 13.9005C68.3872 14.9877 68.7123 15.8646 69.3506 16.5343C69.9919 17.204 70.868 17.5433 71.9789 17.5433C72.7436 17.5433 73.3909 17.3902 73.9298 17.0779C74.4657 16.7655 74.8751 16.3361 75.1581 15.7895C75.4381 15.2399 75.5766 14.6123 75.5766 13.9005M79.8216 13.9005C79.8216 15.2249 79.5206 16.4412 78.9275 17.5524C78.3344 18.6665 77.4462 19.5465 76.2721 20.2041C75.0949 20.8588 73.6648 21.1862 71.9789 21.1862C70.2929 21.1862 68.8267 20.8438 67.6375 20.1651C66.4574 19.4834 65.5812 18.5854 65.0032 17.4713C64.4282 16.3601 64.1391 15.1679 64.1391 13.9005C64.1391 12.6332 64.4252 11.4319 64.9972 10.3268C65.5692 9.2186 66.4513 8.32066 67.6315 7.64495C68.8207 6.96624 70.2658 6.62388 71.9759 6.62388C73.2494 6.62388 74.3874 6.81608 75.3899 7.20649C76.3925 7.5969 77.2114 8.12245 77.8557 8.78915C78.4999 9.45285 78.9877 10.2307 79.3219 11.1106C79.65 11.9935 79.8186 12.9215 79.8186 13.8975" fill="white"/>
<path d="M97.7445 21.1862H93.5324V13.0731L89.7312 17.7731H89.3995L85.5922 13.0731V21.1862H81.5019V7.18397H85.3213L89.6125 12.4385L93.922 7.18397H97.7445V21.1862Z" fill="white"/>
<path d="M109.506 21.1862H98.8646V7.18397H109.331V9.99508H103.121V12.5601H109.048V15.3771H103.121V18.3691H109.506V21.1862Z" fill="white"/>
<path d="M124.069 19.9366C123.513 20.246 122.946 20.4893 122.364 20.6725C121.783 20.8558 121.201 20.9909 120.611 21.069C120.02 21.1441 119.409 21.1862 118.775 21.1862C117.606 21.1862 116.562 21.015 115.636 20.6755C114.712 20.3361 113.908 19.8315 113.227 19.1676C112.543 18.5008 112.034 17.7198 111.695 16.8337C111.359 15.9416 111.187 14.9654 111.187 13.902C111.187 12.6795 111.388 11.6101 111.792 10.694C112.189 9.77784 112.748 9.01488 113.47 8.40512C114.189 7.79835 115.007 7.35079 115.928 7.06243C116.849 6.77106 117.816 6.62388 118.836 6.62388C120.359 6.62388 122.081 6.98133 124.013 7.69923V11.466C123.35 11.0304 122.692 10.664 122.046 10.3786C121.397 10.0842 120.634 9.94305 119.754 9.94305C118.974 9.94305 118.246 10.1083 117.568 10.4327C116.89 10.7601 116.343 11.2257 115.931 11.8354C115.516 12.4452 115.311 13.1541 115.311 13.9651C115.311 14.68 115.492 15.3348 115.852 15.9326C116.214 16.5303 116.714 17.0049 117.354 17.3534C117.997 17.7078 118.722 17.882 119.529 17.882C120.178 17.882 120.795 17.7979 121.376 17.6327C121.955 17.4615 122.446 17.2783 122.841 17.074C123.238 16.8728 123.645 16.6264 124.066 16.3471V19.9396L124.069 19.9366Z" fill="white"/>
<path d="M135.83 21.1862H125.749V7.18397H135.67V9.99508H129.781V12.5601H135.399V15.3771H129.781V18.3691H135.83V21.1862Z" fill="white"/>
<path d="M152.073 21.1862H148.473L141.517 13.3874V21.1862H137.511V7.18397H141.099L148.035 14.9442V7.18397H152.073V21.1862Z" fill="white"/>
<path d="M168.316 10.5911H163.154V21.1862H158.918V10.5911H153.753V7.18397H168.316V10.5911Z" fill="white"/>
<path d="M179.517 21.1862H169.436V7.18397H179.354V9.99508H173.468V12.5601H179.08V15.3771H173.468V18.3691H179.517V21.1862Z" fill="white"/>
<path d="M188.395 11.6112C188.395 10.9618 188.18 10.511 187.759 10.256C187.342 10.001 186.658 9.87054 185.708 9.87054H184.828V13.248H185.726C186.752 13.248 187.448 13.1353 187.829 12.91C188.207 12.6846 188.395 12.2547 188.395 11.6141M194.08 21.1862H189.584L188.492 18.7042C188.089 17.7909 187.729 17.1296 187.409 16.7086C187.088 16.2845 186.776 16.0176 186.474 15.902C186.168 15.7804 185.775 15.7241 185.294 15.7241H184.825V21.1862H180.638V7.18397H187.756C188.906 7.18397 189.85 7.42119 190.582 7.89267C191.32 8.36416 191.847 8.93647 192.171 9.60959C192.494 10.2827 192.655 10.9262 192.655 11.5311C192.655 12.2398 192.519 12.8329 192.246 13.3251C191.977 13.8114 191.69 14.1643 191.39 14.3897C191.091 14.6121 190.755 14.8256 190.377 15.0243C190.827 15.2911 191.193 15.6025 191.484 15.9583C191.774 16.3231 192.171 17.0496 192.67 18.1467L194.071 21.1832L194.08 21.1862Z" fill="white"/>
</svg>
