<svg width="70" height="21" viewBox="0 0 70 21" fill="none" xmlns="http://www.w3.org/2000/svg">
<path d="M48.6592 0.171875C49.5003 0.171887 50.2777 0.266518 50.9795 0.449219V0.448242C51.6886 0.63793 52.289 0.935138 52.7959 1.3457C53.3011 1.75496 53.6936 2.27716 53.9805 2.91895C54.2652 3.55599 54.4111 4.3283 54.4111 5.23633V5.61621H51.0547C51.0349 4.74963 50.8657 4.05719 50.5449 3.55371C50.1827 2.98348 49.5819 2.72266 48.791 2.72266C48.3464 2.72266 47.9668 2.78639 47.6504 2.92285L47.6475 2.9248C47.3431 3.06251 47.089 3.24791 46.9004 3.47949L46.8994 3.48047C46.7189 3.70762 46.5873 3.97229 46.5195 4.27246C46.4546 4.56001 46.4248 4.85535 46.4248 5.15332C46.4248 5.77821 46.5529 6.31819 46.8252 6.75879V6.75781C47.0981 7.21736 47.6812 7.61193 48.5068 7.95898V7.95996L51.4844 9.27051V9.27148C52.2103 9.59581 52.7926 9.92967 53.2451 10.2764V10.2773C53.6987 10.6208 54.0563 10.9891 54.3203 11.3818V11.3828C54.584 11.7711 54.7694 12.203 54.8721 12.6758L54.873 12.6768C54.9771 13.148 55.0293 13.6792 55.0293 14.2754C55.0293 16.2988 54.4537 17.7389 53.3369 18.6338C52.2097 19.5319 50.6228 20 48.5557 20C46.3966 20 44.8899 19.5219 43.9971 18.6035V18.6025C43.0974 17.681 42.6348 16.347 42.6348 14.5742V13.958H46.1523V14.3584C46.1523 14.8189 46.1897 15.2443 46.2617 15.625V15.626C46.3322 16.0291 46.4791 16.362 46.6943 16.6465L46.6973 16.6504C46.916 16.9245 47.1977 17.1436 47.5557 17.2959V17.2969C47.9121 17.4604 48.3603 17.5332 48.873 17.5332C49.4307 17.5332 49.9346 17.3652 50.3857 17.0459L50.5752 16.8994C51.1016 16.4661 51.3477 15.8026 51.3477 14.9521C51.3476 14.6175 51.3141 14.3097 51.2451 14.0322L51.1641 13.7646C51.0728 13.5066 50.9317 13.2686 50.7471 13.0508L50.5479 12.8398C50.2663 12.5655 49.8903 12.3237 49.4473 12.1113L49.4463 12.1104C49.1126 11.9519 48.7189 11.79 48.2715 11.627L47.8066 11.4639C46.9607 11.1759 46.2322 10.8595 45.6113 10.5205C44.9995 10.1842 44.4987 9.79351 44.0879 9.33984V9.33887L43.9414 9.16992C43.6114 8.76716 43.3631 8.30887 43.1963 7.79102V7.79004L43.1289 7.56641C42.9831 7.03242 42.9111 6.41924 42.9111 5.72559C42.9112 3.83419 43.4304 2.4518 44.4385 1.54395C45.4458 0.633759 46.8442 0.171875 48.6592 0.171875ZM61.25 0.549805V13.8047H61.2422V13.9766C61.2422 14.3507 61.2625 14.7014 61.2998 15.0303L61.3428 15.3516C61.4031 15.7759 61.5288 16.1526 61.709 16.4717V16.4727C61.8928 16.8021 62.1459 17.0618 62.4707 17.248V17.2471C62.8019 17.4454 63.2053 17.5332 63.666 17.5332C64.1544 17.5332 64.561 17.446 64.8828 17.2441C65.1967 17.0581 65.4427 16.8005 65.625 16.4746L65.626 16.4756C65.8123 16.1541 65.9325 15.7754 66.001 15.3535L66.002 15.3496C66.0607 14.9316 66.0986 14.4793 66.0986 13.9766V0.549805H69.6152V13.9766C69.6152 15.195 69.444 16.1962 69.1133 16.9824V16.9834C68.8286 17.6697 68.457 18.229 67.999 18.6611L67.7979 18.8389C67.2443 19.2918 66.6206 19.6029 65.918 19.7588H65.917C65.1964 19.9218 64.4462 20 63.6699 20C62.9008 20 62.1535 19.9301 61.4316 19.7832H61.4307C60.8106 19.6605 60.2529 19.4281 59.7539 19.083L59.5439 18.9277L59.3447 18.7607C58.8932 18.3511 58.5197 17.8006 58.2354 17.1045V17.1035L58.1191 16.7939C57.8648 16.0449 57.7324 15.1057 57.7324 13.9766V0.549805H61.25ZM40.7109 0.549805V3.42773H36.5283V19.7012H33.0068V3.42773H28.8291V0.549805H40.7109ZM23.9365 0.549805L28.9092 19.6973H25.2559L24.3984 15.709L24.3691 15.5732H19.001L18.9717 15.709L18.1143 19.6973H14.458L19.4297 0.549805H23.9365ZM3.68457 0.549805V8.00293H8.5332V0.549805H12.0508V19.6973H8.5332V11.043H3.68457V19.6973H0.171875V0.549805H3.68457ZM21.4844 3.73047L19.6406 12.4922L19.5967 12.6992H23.7705L23.7266 12.4922L21.8779 3.73047L21.8496 3.59375H21.5127L21.4844 3.73047Z" fill="white" stroke="white" stroke-width="0.343852"/>
</svg>
