<svg width="174" height="18" viewBox="0 0 174 18" fill="none" xmlns="http://www.w3.org/2000/svg">
<path d="M62.3847 2.58727L63.7809 3.65269C63.7911 4.62285 63.8095 5.66778 63.8288 6.808C63.8349 7.94308 63.8471 9.13759 63.8471 10.4253C62.9988 9.32097 62.2391 8.36208 61.5435 7.49847C60.8602 6.62872 60.2471 5.85526 59.7155 5.21805C59.1636 4.56343 58.7185 4.01023 58.3631 3.52976C57.9985 3.09539 57.7521 2.72762 57.6044 2.47868H54.5309V2.58624L55.978 3.61684C56.088 6.92786 56.088 9.61601 55.978 11.6997L54.7682 12.6945V12.8358H58.302V12.6945L56.9699 11.6997H56.972C56.8956 9.27794 56.86 6.91864 56.86 4.56343L62.9581 12.2468C63.0375 12.3482 63.1404 12.4722 63.2422 12.592C63.339 12.6945 63.3777 12.8195 63.3777 12.8891H64.7973C64.7179 11.5625 64.6619 10.1354 64.6619 8.60693C64.6435 7.10611 64.6619 5.44138 64.7179 3.65372L65.9328 2.58829V2.48073H62.3858V2.58829L62.3847 2.58727Z" fill="#FEFEFE"/>
<path d="M72.0688 3.431L73.3123 2.58415V2.47868H68.9499V2.58415L70.2041 3.431C70.2201 6.22387 70.2201 9.03122 70.2041 11.8872L68.9072 12.7568V12.8891H73.3688V12.7568L72.0688 11.8872C72.0122 9.16254 72.0122 6.37277 72.0688 3.431Z" fill="#FEFEFE"/>
<path d="M84.1163 11.9971C82.6259 12.0591 81.1975 12.0591 79.8395 11.9971C79.8136 10.6224 79.8136 9.25497 79.8395 7.89579C80.6287 7.87201 81.725 7.85961 83.1317 7.85961L83.9395 9.04619H84.0564V5.83168H83.9395L83.1317 7.0441C81.2751 7.0441 80.1581 7.02549 79.8126 7.00276C79.7971 6.4136 79.7733 5.81825 79.7733 5.22289C79.7733 4.62754 79.7733 4.03425 79.7971 3.38928C80.4487 3.33967 81.1572 3.33037 81.8543 3.33037C82.5514 3.33037 83.2848 3.3407 84.0564 3.3407L84.9366 4.54278H85.0524V2.47868H76.839V2.58617L78.0336 3.43269C78.0626 5.86062 78.0626 8.66169 78.0336 11.8886L76.839 12.7558V12.8891H85.2665V10.5811H85.1465L84.1153 11.9971H84.1163Z" fill="#FEFEFE"/>
<path d="M47.5265 2.58727L48.9017 3.65269C48.9139 4.62285 48.9323 5.66778 48.9425 6.808C48.9628 7.94308 48.9628 9.13759 48.9628 10.4253C48.1412 9.32097 47.3756 8.36208 46.6845 7.49847C45.9801 6.62872 45.3613 5.85526 44.821 5.21805C44.291 4.56343 43.8536 4.01023 43.4928 3.52976C43.1339 3.09539 42.8832 2.72762 42.7303 2.47868H39.6588V2.58624L41.0952 3.61684C41.2083 6.92786 41.2083 9.61601 41.0952 11.6997L39.9025 12.6945V12.8358H43.4285V12.6945L42.0952 11.6997H42.1033C42.0269 9.27794 41.9729 6.91864 41.9729 4.56343L48.0923 12.2468C48.1922 12.3482 48.2737 12.4722 48.3665 12.592C48.4633 12.6945 48.5123 12.8195 48.5123 12.8891H49.9221C49.8252 11.5625 49.7763 10.1354 49.7763 8.60693C49.7661 7.10611 49.7814 5.44138 49.8477 3.65372L51.0607 2.58829V2.48073H47.5265V2.58829V2.58727Z" fill="#FEFEFE"/>
<path d="M110.57 0.116666C110.771 0.231338 110.979 0.377919 111.186 0.510539C111.405 0.647148 111.593 0.791735 111.773 0.92635C111.388 2.25056 111.014 3.42919 110.705 4.51708C110.38 5.58303 110.097 6.49641 109.858 7.28216C109.617 8.04598 109.427 8.69113 109.278 9.20068C109.144 9.69127 109.045 10.0423 109.002 10.2257L106.066 1.03703C106.271 0.843586 106.462 0.6641 106.643 0.510539C106.84 0.35299 107.029 0.218375 107.197 0.116666V0H102.514V0.131623L103.689 0.992161C103.364 1.95341 103.07 2.8658 102.795 3.75426C102.529 4.61081 102.274 5.41949 102.039 6.17832C101.8 6.92818 101.59 7.64413 101.386 8.29626C101.172 8.95139 101.004 9.57859 100.83 10.1729L98.0567 1.0131L99.1957 0.116666V0H94.6855V0.116666C94.8798 0.263247 95.0502 0.382904 95.1787 0.494585C95.3072 0.593302 95.418 0.6641 95.5037 0.750852C95.5873 0.820652 95.6584 0.889455 95.7002 0.94729C95.7503 1.0131 95.7994 1.07492 95.8078 1.15968C95.9572 1.59743 96.1568 2.21466 96.4348 2.99942C96.7076 3.82506 97.0127 4.74642 97.3711 5.7685C97.7275 6.79655 98.1214 7.90837 98.5248 9.11592C98.9209 10.3284 99.3378 11.5649 99.7423 12.8891H101.225C101.204 12.8193 101.204 12.7814 101.204 12.7515C101.204 12.6548 101.217 12.568 101.236 12.5002C101.254 12.4225 101.283 12.3257 101.301 12.241C101.343 12.1562 101.366 12.0864 101.385 12.0027C101.514 11.5569 101.649 11.0843 101.789 10.5688C101.932 10.0532 102.088 9.49783 102.26 8.93643C102.432 8.37703 102.611 7.78971 102.774 7.19242C102.962 6.61208 103.123 6.01678 103.309 5.42747C103.471 4.86309 103.647 4.2977 103.825 3.76024C103.978 3.18588 104.155 2.69329 104.295 2.24059L107.813 12.8891H109.235C109.29 12.6668 109.398 12.242 109.589 11.5998C109.782 10.9756 110.025 10.1739 110.348 9.17276C110.66 8.19455 111.041 7.01593 111.466 5.66878C111.891 4.31466 112.376 2.75412 112.891 1.07492C113.193 0.795723 113.439 0.5943 113.631 0.42279C113.815 0.263247 113.941 0.148575 114.019 0.0937318V0H110.569V0.116666H110.57Z" fill="#FEFEFE"/>
<path d="M2.98661 0.118716L4.58262 1.09381L4.6884 12.0735C4.6884 12.524 4.6884 12.9045 4.67094 13.2454C4.65245 13.565 4.61856 13.8867 4.57337 14.1647C4.52202 14.4468 4.42856 14.7015 4.3197 14.947C4.20467 15.1824 4.03623 15.4208 3.84829 15.6441C3.59769 15.9353 3.30396 16.1707 2.95066 16.3422C2.59428 16.5167 2.21531 16.5877 1.81579 16.5776C1.85687 16.54 1.8959 16.4791 1.92979 16.4112C1.9606 16.3625 1.98833 16.2975 2.01504 16.2133C2.03558 16.1372 2.04585 16.0459 2.04585 15.9353C2.04585 15.8389 2.02531 15.7303 1.97087 15.6278C1.91952 15.5091 1.84249 15.4198 1.75931 15.3123C1.6566 15.2311 1.55801 15.1581 1.43682 15.1093C1.31049 15.0464 1.1739 15.018 1.04963 15.018C0.916112 15.018 0.789787 15.0464 0.658327 15.0962C0.542273 15.1449 0.428272 15.2128 0.329677 15.3123C0.229028 15.3985 0.154055 15.5091 0.100649 15.641C0.0390272 15.7628 0 15.9099 0 16.051C0 16.2843 0.064703 16.472 0.167406 16.6364C0.278326 16.8109 0.414921 16.9327 0.587462 17.0443C0.757949 17.1407 0.93768 17.2219 1.14617 17.2696C1.3526 17.3274 1.55184 17.3507 1.74185 17.3507C2.15266 17.3507 2.54088 17.2797 2.91266 17.159C3.27931 17.0271 3.6244 16.8576 3.94688 16.6324C4.26937 16.399 4.57132 16.1382 4.84656 15.8298C5.1177 15.5051 5.35392 15.1591 5.55008 14.7705C5.72057 14.4468 5.89105 14.1322 6.03484 13.8238C6.1817 13.5204 6.32138 13.2312 6.41484 12.8253C6.52062 12.4814 6.60279 12.0917 6.65619 11.6909C6.71063 11.2658 6.73117 10.8021 6.7209 10.2674C6.71063 9.70627 6.69727 9.14617 6.687 8.55564C6.67468 7.95597 6.6716 7.30253 6.65619 6.56284C6.64592 5.82518 6.63257 5.01751 6.62333 4.11141C6.60484 3.17995 6.60279 2.13891 6.60279 0.962915L7.93177 0.118716V0H2.98661V0.118716Z" fill="#FEFEFE"/>
<path d="M21.4897 5.14414C21.2422 4.73161 20.9301 4.36713 20.5532 4.05973C20.2113 3.70227 19.8242 3.41489 19.4145 3.1906C18.9966 2.94228 18.5684 2.78107 18.1114 2.65591C17.6607 2.53575 17.2017 2.47868 16.7273 2.47868C15.8914 2.47868 15.1234 2.61285 14.4149 2.90323C13.7135 3.18359 13.0995 3.56809 12.5789 4.08276C12.046 4.58542 11.6414 5.14514 11.3446 5.82002C11.0479 6.47788 10.9062 7.19281 10.9062 7.9548C10.9062 8.71679 11.0479 9.39467 11.357 10.0565C11.6558 10.7194 12.0634 11.2891 12.5994 11.7808C13.1252 12.2834 13.7341 12.693 14.422 12.9773C15.1182 13.3148 15.8586 13.3849 16.6626 13.3849C17.4666 13.3849 18.209 13.3148 18.9011 12.9633C19.5819 12.6809 20.1743 12.2834 20.6826 11.7637C21.2063 11.2611 21.5903 10.6873 21.885 10.0395C22.1684 9.37965 22.3081 8.69676 22.3081 7.9548C22.3081 7.42711 22.2403 6.93046 22.1017 6.45785C21.9497 5.98323 21.7485 5.54066 21.4907 5.14514M19.9484 9.99345C19.742 10.5732 19.4792 11.0558 19.1331 11.4533C18.7963 11.8549 18.4092 12.1472 17.978 12.3896C17.5416 12.5648 17.1093 12.6799 16.6246 12.6799C16.1132 12.6799 15.6347 12.5578 15.1809 12.3685C14.7188 12.1262 14.3194 11.8188 13.9795 11.4243C13.6283 11.0218 13.3552 10.5191 13.1508 9.92936C12.9557 9.35862 12.8541 8.70177 12.8541 7.9548C12.8541 7.28292 12.9372 6.66011 13.0995 6.08036C13.272 5.51062 13.5071 5.031 13.8296 4.61546C14.1438 4.20592 14.536 3.84345 14.9817 3.61315C15.4324 3.37785 15.9561 3.25068 16.5312 3.25068C17.1062 3.25068 17.6422 3.37785 18.1012 3.61315C18.5622 3.82843 18.9545 4.19591 19.2769 4.60544C19.5921 5.02699 19.8314 5.51062 20.0039 6.07936C20.1743 6.6491 20.2626 7.27191 20.2626 7.9538C20.2626 8.72079 20.1651 9.39367 19.9474 9.99245" fill="#FEFEFE"/>
<path d="M32.5396 2.58719L33.7339 3.43363V6.98784C31.8713 6.99817 30.0465 6.99817 28.233 6.98784V3.43363L29.4253 2.58719V2.47868H25.2825V2.58719L26.4441 3.43363V11.8856L25.2825 12.7579V12.8891H29.4253V12.7579L28.233 11.8856V7.83324C30.0475 7.81464 31.8713 7.81464 33.7339 7.83324V11.8856L32.5396 12.7579V12.8891H36.6844V12.7579L35.5106 11.8856C35.4768 9.2388 35.4768 6.44835 35.5106 3.43363L36.6844 2.58719V2.47868H32.5396V2.58719Z" fill="#FEFEFE"/>
<path d="M118.333 2.47868L114.73 11.7753L113.523 12.7596V12.8891H117.034V12.7596L115.719 11.7753L116.712 9.08649C118.102 9.07334 119.402 9.07334 120.617 9.08649L121.695 11.7753L120.357 12.7596V12.8891H124.925V12.7596L123.729 11.7349L119.825 2.47868H118.333ZM117.016 8.32374L118.614 4.00418L120.323 8.32374H117.016Z" fill="#FEFEFE"/>
<path d="M158.996 12.4929C157.462 12.5549 156.032 12.5549 154.695 12.4929C154.671 11.1182 154.671 9.75071 154.695 8.39152C155.471 8.36775 156.559 8.35535 158.001 8.35535L158.817 9.54399H158.939V6.32742H158.817L158.001 7.53983C156.12 7.53983 155.03 7.52123 154.671 7.49849C154.656 6.91244 154.642 6.31708 154.642 5.71863C154.629 5.12534 154.642 4.52998 154.655 3.88502C155.301 3.8354 155.974 3.8261 156.689 3.8261C157.405 3.8261 158.161 3.83644 158.938 3.83644L159.794 5.03852H159.908V2.97441H151.695V3.08191L152.879 3.9305C152.92 6.35533 152.92 9.15639 152.879 12.3843L151.695 13.2505V13.3849H160.123V11.0758H159.997L158.993 12.4918L158.996 12.4929Z" fill="#FEFEFE"/>
<path d="M173.275 13.0778C173.185 12.9847 173.07 12.8741 172.962 12.7759C172.853 12.6435 172.749 12.4916 172.654 12.3654C172.534 12.2465 172.452 12.1359 172.397 12.0511L170.745 9.50459C170.573 9.20476 170.376 8.97006 170.139 8.8005C169.899 8.64851 169.6 8.55029 169.25 8.50893C169.734 8.48929 170.199 8.40348 170.62 8.26907C171.034 8.13052 171.401 7.94442 171.702 7.70248C172.013 7.46262 172.243 7.19173 172.42 6.86812C172.584 6.54244 172.687 6.18987 172.687 5.79492C172.687 5.39997 172.57 5.01328 172.381 4.67003C172.179 4.33194 171.891 4.00936 171.54 3.75915C171.183 3.50274 170.734 3.3125 170.23 3.17603C169.722 3.03128 169.164 2.97441 168.531 2.97441H163.66V3.07987L164.843 3.968V12.384L163.593 13.2535V13.3849H167.878V13.2535L166.695 12.4326L166.657 8.8615C166.906 8.84806 167.128 8.82841 167.339 8.82841H167.792C168.002 8.82841 168.197 8.8739 168.309 8.91836C168.446 8.99074 168.565 9.11377 168.669 9.27403L171.126 13.3849H173.507V13.2535C173.456 13.2246 173.378 13.176 173.276 13.0778M167.85 8.10468H167.292C167.167 8.09434 167.043 8.09434 166.952 8.09434C166.834 8.09434 166.743 8.09434 166.667 8.0809L166.686 3.79534C166.823 3.79534 166.994 3.77466 167.155 3.76949C167.321 3.76225 167.476 3.76225 167.642 3.75708C167.793 3.74571 167.922 3.73847 168.047 3.73847H168.31C168.67 3.7364 168.985 3.79534 169.261 3.9039C169.568 4.01659 169.799 4.18719 169.999 4.38053C170.201 4.56457 170.36 4.79616 170.453 5.03913C170.559 5.29761 170.611 5.56229 170.611 5.84145C170.611 6.57035 170.377 7.13694 169.9 7.51948C169.433 7.91961 168.743 8.10468 167.85 8.10468Z" fill="#FEFEFE"/>
<path d="M143.17 7.35199C144.068 6.49281 144.834 5.76494 145.459 5.18491C146.094 4.6173 146.551 4.19133 146.881 3.9039L148.442 3.0778V2.97441H144.974V3.0778L145.503 3.88839C145.143 4.28541 144.765 4.64418 144.403 5.01328C144.031 5.37515 143.658 5.71738 143.293 6.06167C142.933 6.40183 142.589 6.73474 142.249 7.03665C141.91 7.34062 141.591 7.64045 141.285 7.87722C142.476 9.08482 143.836 10.5902 145.42 12.4347L144.974 13.2525V13.3849H148.721V13.2525L147.922 12.4347C145.697 10.1125 144.122 8.44587 143.17 7.35199Z" fill="#FEFEFE"/>
<path d="M141.489 3.92589L142.754 3.0768V2.97441H138.356V3.0768L139.602 3.92589C139.621 6.7338 139.621 9.53136 139.602 12.3837L138.31 13.2535V13.3849H142.772V13.2535L141.489 12.3837C141.47 9.50343 141.47 6.69967 141.489 3.92589Z" fill="#FEFEFE"/>
<path d="M134.72 12.4465H132.663C132.01 12.4465 131.428 12.4362 130.895 12.4362C130.858 9.56228 130.858 6.75354 130.895 3.92307L132.202 3.09338V2.97441H127.9V3.09338L129.078 3.92307C129.117 6.73181 129.117 9.52297 129.078 12.3834L127.9 13.2535V13.3849H135.831V11.0592H135.677L134.719 12.4455L134.72 12.4465Z" fill="#FEFEFE"/>
</svg>
