<svg width="42" height="42" viewBox="0 0 42 42" fill="none" xmlns="http://www.w3.org/2000/svg">
<path d="M35.6533 6.15189C45.5743 16.096 43.0212 32.6561 30.7052 39.2542C16.5054 46.861 -0.654266 36.0022 0.0192184 19.9955C0.780423 1.91823 22.8063 -6.72511 35.6533 6.15189ZM4.23556 30.0684C4.32213 30.1318 5.43018 29.2137 5.58946 29.0861C9.63613 25.8347 13.5997 22.4719 17.6141 19.1807L17.8241 18.7559L20.6133 2.12021C20.5706 1.8005 19.8769 1.89226 19.6155 1.90611C9.06422 2.48206 1.06725 12.0742 1.98427 22.5365C2.218 25.2045 3.13848 27.6595 4.23556 30.0684ZM37.4729 30.0078C42.2912 21.5953 39.6648 10.692 31.7226 5.26314C28.7245 3.21383 24.8521 1.87956 21.2008 1.90495L23.9426 18.8136L24.0961 19.1218L37.3021 29.9812L37.4729 30.0078ZM4.63896 30.5306C4.58645 30.6051 4.94656 31.1591 5.0187 31.2751C6.48975 33.6418 8.94418 35.8458 11.3519 37.2343C19.4689 41.9135 29.7293 40.0402 35.6273 32.8079C35.9586 32.4016 36.8317 31.3299 37.0181 30.9098C37.2397 30.4106 36.6609 30.3506 36.2783 30.1982C31.4214 28.2649 26.4352 26.6352 21.5776 24.7001C21.221 24.5685 20.8574 24.4387 20.4777 24.583L4.63896 30.5306Z" fill="white"/>
</svg>
